<svg width="321" height="161" viewBox="0 0 321 161" fill="none" xmlns="http://www.w3.org/2000/svg">
<path d="M84.1055 30H78.7266V4.08984H84.1055V30ZM110.174 10.418C111.018 10.418 111.85 10.582 112.67 10.9102C113.49 11.2383 114.234 11.8125 114.902 12.6328C115.441 13.3008 115.805 14.1211 115.992 15.0938C116.109 15.7383 116.168 16.6816 116.168 17.9238L116.133 30H111V17.8008C111 17.0742 110.883 16.4766 110.648 16.0078C110.203 15.1172 109.383 14.6719 108.188 14.6719C106.805 14.6719 105.85 15.2461 105.322 16.3945C105.053 17.0039 104.918 17.7363 104.918 18.5918V30H99.873V18.5918C99.873 17.4551 99.7559 16.6289 99.5215 16.1133C99.0996 15.1875 98.2734 14.7246 97.043 14.7246C95.6133 14.7246 94.6523 15.1875 94.1602 16.1133C93.8906 16.6406 93.7559 17.4258 93.7559 18.4688V30H88.6758V10.875H93.5449V13.6699C94.166 12.6738 94.752 11.9648 95.3027 11.543C96.2754 10.793 97.5352 10.418 99.082 10.418C100.547 10.418 101.73 10.7402 102.633 11.3848C103.359 11.9824 103.91 12.75 104.285 13.6875C104.941 12.5625 105.756 11.7363 106.729 11.209C107.76 10.6816 108.908 10.418 110.174 10.418ZM131.355 20.6836C131.039 20.8828 130.717 21.0469 130.389 21.1758C130.072 21.293 129.633 21.4043 129.07 21.5098L127.945 21.7207C126.891 21.9082 126.135 22.1367 125.678 22.4062C124.904 22.8633 124.518 23.5723 124.518 24.5332C124.518 25.3887 124.752 26.0098 125.221 26.3965C125.701 26.7715 126.281 26.959 126.961 26.959C128.039 26.959 129.029 26.6426 129.932 26.0098C130.846 25.377 131.32 24.2227 131.355 22.5469V20.6836ZM128.314 18.3457C129.24 18.2285 129.902 18.082 130.301 17.9062C131.016 17.6016 131.373 17.127 131.373 16.4824C131.373 15.6973 131.098 15.1582 130.547 14.8652C130.008 14.5605 129.211 14.4082 128.156 14.4082C126.973 14.4082 126.135 14.7012 125.643 15.2871C125.291 15.7207 125.057 16.3066 124.939 17.0449H120.105C120.211 15.3691 120.68 13.9922 121.512 12.9141C122.836 11.2266 125.109 10.3828 128.332 10.3828C130.43 10.3828 132.293 10.7988 133.922 11.6309C135.551 12.4629 136.365 14.0332 136.365 16.3418V25.1309C136.365 25.7402 136.377 26.4785 136.4 27.3457C136.436 28.002 136.535 28.4473 136.699 28.6816C136.863 28.916 137.109 29.1094 137.438 29.2617V30H131.988C131.836 29.6133 131.73 29.25 131.672 28.9102C131.613 28.5703 131.566 28.1836 131.531 27.75C130.84 28.5 130.043 29.1387 129.141 29.666C128.062 30.2871 126.844 30.5977 125.484 30.5977C123.75 30.5977 122.314 30.1055 121.178 29.1211C120.053 28.125 119.49 26.7188 119.49 24.9023C119.49 22.5469 120.398 20.8418 122.215 19.7871C123.211 19.2129 124.676 18.8027 126.609 18.5566L128.314 18.3457ZM149.057 25.8867C150.229 25.8867 151.219 25.4473 152.027 24.5684C152.836 23.6777 153.24 22.2656 153.24 20.332C153.24 18.5156 152.854 17.1328 152.08 16.1836C151.318 15.2344 150.293 14.7598 149.004 14.7598C147.246 14.7598 146.033 15.5859 145.365 17.2383C145.014 18.1172 144.838 19.2012 144.838 20.4902C144.838 21.6035 145.025 22.5938 145.4 23.4609C146.08 25.0781 147.299 25.8867 149.057 25.8867ZM147.809 10.3828C148.77 10.3828 149.607 10.5293 150.322 10.8223C151.541 11.3262 152.525 12.252 153.275 13.5996V10.8398H158.145V29.0156C158.145 31.4883 157.729 33.3516 156.896 34.6055C155.467 36.7617 152.725 37.8398 148.67 37.8398C146.221 37.8398 144.223 37.3594 142.676 36.3984C141.129 35.4375 140.273 34.002 140.109 32.0918H145.559C145.699 32.6777 145.928 33.0996 146.244 33.3574C146.783 33.8145 147.691 34.043 148.969 34.043C150.773 34.043 151.98 33.4395 152.59 32.2324C152.988 31.459 153.188 30.1582 153.188 28.3301V27.0996C152.707 27.9199 152.191 28.5352 151.641 28.9453C150.645 29.707 149.35 30.0879 147.756 30.0879C145.295 30.0879 143.326 29.2266 141.85 27.5039C140.385 25.7695 139.652 23.4258 139.652 20.4727C139.652 17.625 140.361 15.2344 141.779 13.3008C143.197 11.3555 145.207 10.3828 147.809 10.3828ZM167.988 8.55469H162.908V3.93164H167.988V8.55469ZM162.908 10.8398H167.988V30H162.908V10.8398ZM183.475 10.3828C185.455 10.3828 187.072 10.9043 188.326 11.9473C189.592 12.9785 190.225 14.6953 190.225 17.0977V30H185.092V18.3457C185.092 17.3379 184.957 16.5645 184.688 16.0254C184.195 15.041 183.258 14.5488 181.875 14.5488C180.176 14.5488 179.01 15.2695 178.377 16.7109C178.049 17.4727 177.885 18.4453 177.885 19.6289V30H172.893V10.875H177.727V13.6699C178.371 12.6855 178.98 11.9766 179.555 11.543C180.586 10.7695 181.893 10.3828 183.475 10.3828ZM202.424 14.4609C201.264 14.4609 200.361 14.8242 199.717 15.5508C199.084 16.2773 198.686 17.2617 198.521 18.5039H206.309C206.227 17.1797 205.822 16.1777 205.096 15.498C204.381 14.8066 203.49 14.4609 202.424 14.4609ZM202.424 10.3301C204.018 10.3301 205.453 10.6289 206.73 11.2266C208.008 11.8242 209.062 12.7676 209.895 14.0566C210.645 15.1934 211.131 16.5117 211.354 18.0117C211.482 18.8906 211.535 20.1562 211.512 21.8086H198.398C198.469 23.7305 199.072 25.0781 200.209 25.8516C200.9 26.332 201.732 26.5723 202.705 26.5723C203.736 26.5723 204.574 26.2793 205.219 25.6934C205.57 25.377 205.881 24.9375 206.15 24.375H211.266C211.137 25.5117 210.545 26.666 209.49 27.8379C207.85 29.7012 205.553 30.6328 202.6 30.6328C200.162 30.6328 198.012 29.8477 196.148 28.2773C194.285 26.707 193.354 24.1523 193.354 20.6133C193.354 17.2969 194.191 14.7539 195.867 12.9844C197.555 11.2148 199.74 10.3301 202.424 10.3301ZM230.074 8.55469H224.994V3.93164H230.074V8.55469ZM224.994 10.8398H230.074V30H224.994V10.8398ZM242.01 3.82617C242.326 3.82617 242.613 3.83789 242.871 3.86133C243.129 3.87305 243.48 3.89648 243.926 3.93164V8.00977C243.645 7.97461 243.17 7.95117 242.502 7.93945C241.846 7.91602 241.389 8.0625 241.131 8.37891C240.885 8.68359 240.762 9.02344 240.762 9.39844C240.762 9.77344 240.762 10.3125 240.762 11.0156H244.049V14.5488H240.762V30H235.77V14.5488H232.975V11.0156H235.717V9.78516C235.717 7.73437 236.062 6.32227 236.754 5.54883C237.48 4.40039 239.232 3.82617 242.01 3.82617ZM74.2793 82.3477C75.4629 82.3477 76.5352 82.5527 77.4961 82.9629C78.4688 83.373 79.2656 84 79.8867 84.8438C80.4141 85.5586 80.7363 86.2969 80.8535 87.0586C80.9707 87.8086 81.0293 89.0391 81.0293 90.75V102H75.9141V90.3457C75.9141 89.3145 75.7383 88.4824 75.3867 87.8496C74.9297 86.959 74.0625 86.5137 72.7852 86.5137C71.4609 86.5137 70.4531 86.959 69.7617 87.8496C69.082 88.7285 68.7422 89.9883 68.7422 91.6289V102H63.75V76.1777H68.7422V85.3359C69.4688 84.2227 70.3066 83.4492 71.2559 83.0156C72.2168 82.5703 73.2246 82.3477 74.2793 82.3477ZM96.2871 92.6836C95.9707 92.8828 95.6484 93.0469 95.3203 93.1758C95.0039 93.293 94.5645 93.4043 94.002 93.5098L92.877 93.7207C91.8223 93.9082 91.0664 94.1367 90.6094 94.4062C89.8359 94.8633 89.4492 95.5723 89.4492 96.5332C89.4492 97.3887 89.6836 98.0098 90.1523 98.3965C90.6328 98.7715 91.2129 98.959 91.8926 98.959C92.9707 98.959 93.9609 98.6426 94.8633 98.0098C95.7773 97.377 96.252 96.2227 96.2871 94.5469V92.6836ZM93.2461 90.3457C94.1719 90.2285 94.834 90.082 95.2324 89.9062C95.9473 89.6016 96.3047 89.127 96.3047 88.4824C96.3047 87.6973 96.0293 87.1582 95.4785 86.8652C94.9395 86.5605 94.1426 86.4082 93.0879 86.4082C91.9043 86.4082 91.0664 86.7012 90.5742 87.2871C90.2227 87.7207 89.9883 88.3066 89.8711 89.0449H85.0371C85.1426 87.3691 85.6113 85.9922 86.4434 84.9141C87.7676 83.2266 90.041 82.3828 93.2637 82.3828C95.3613 82.3828 97.2246 82.7988 98.8535 83.6309C100.482 84.4629 101.297 86.0332 101.297 88.3418V97.1309C101.297 97.7402 101.309 98.4785 101.332 99.3457C101.367 100.002 101.467 100.447 101.631 100.682C101.795 100.916 102.041 101.109 102.369 101.262V102H96.9199C96.7676 101.613 96.6621 101.25 96.6035 100.91C96.5449 100.57 96.498 100.184 96.4629 99.75C95.7715 100.5 94.9746 101.139 94.0723 101.666C92.9941 102.287 91.7754 102.598 90.416 102.598C88.6816 102.598 87.2461 102.105 86.1094 101.121C84.9844 100.125 84.4219 98.7188 84.4219 96.9023C84.4219 94.5469 85.3301 92.8418 87.1465 91.7871C88.1426 91.2129 89.6074 90.8027 91.541 90.5566L93.2461 90.3457ZM112.828 82.3828C113.988 82.3828 115.02 82.6406 115.922 83.1562C116.824 83.6602 117.557 84.3633 118.119 85.2656V76.125H123.199V102H118.33V99.3457C117.615 100.482 116.801 101.309 115.887 101.824C114.973 102.34 113.836 102.598 112.477 102.598C110.238 102.598 108.352 101.695 106.816 99.8906C105.293 98.0742 104.531 95.748 104.531 92.9121C104.531 89.6426 105.281 87.0703 106.781 85.1953C108.293 83.3203 110.309 82.3828 112.828 82.3828ZM113.918 98.3789C115.336 98.3789 116.414 97.8516 117.152 96.7969C117.891 95.7422 118.26 94.377 118.26 92.7012C118.26 90.3574 117.668 88.6816 116.484 87.6738C115.758 87.0645 114.914 86.7598 113.953 86.7598C112.488 86.7598 111.41 87.3164 110.719 88.4297C110.039 89.5312 109.699 90.9023 109.699 92.543C109.699 94.3125 110.045 95.7305 110.736 96.7969C111.439 97.8516 112.5 98.3789 113.918 98.3789ZM145.348 86.4609C144.188 86.4609 143.285 86.8242 142.641 87.5508C142.008 88.2773 141.609 89.2617 141.445 90.5039H149.232C149.15 89.1797 148.746 88.1777 148.02 87.498C147.305 86.8066 146.414 86.4609 145.348 86.4609ZM145.348 82.3301C146.941 82.3301 148.377 82.6289 149.654 83.2266C150.932 83.8242 151.986 84.7676 152.818 86.0566C153.568 87.1934 154.055 88.5117 154.277 90.0117C154.406 90.8906 154.459 92.1562 154.436 93.8086H141.322C141.393 95.7305 141.996 97.0781 143.133 97.8516C143.824 98.332 144.656 98.5723 145.629 98.5723C146.66 98.5723 147.498 98.2793 148.143 97.6934C148.494 97.377 148.805 96.9375 149.074 96.375H154.189C154.061 97.5117 153.469 98.666 152.414 99.8379C150.773 101.701 148.477 102.633 145.523 102.633C143.086 102.633 140.936 101.848 139.072 100.277C137.209 98.707 136.277 96.1523 136.277 92.6133C136.277 89.2969 137.115 86.7539 138.791 84.9844C140.479 83.2148 142.664 82.3301 145.348 82.3301ZM169.641 82.8398H175.02L168.111 102H162.82L155.947 82.8398H161.572L165.562 96.9727L169.641 82.8398ZM185.426 86.4609C184.266 86.4609 183.363 86.8242 182.719 87.5508C182.086 88.2773 181.688 89.2617 181.523 90.5039H189.311C189.229 89.1797 188.824 88.1777 188.098 87.498C187.383 86.8066 186.492 86.4609 185.426 86.4609ZM185.426 82.3301C187.02 82.3301 188.455 82.6289 189.732 83.2266C191.01 83.8242 192.064 84.7676 192.896 86.0566C193.646 87.1934 194.133 88.5117 194.355 90.0117C194.484 90.8906 194.537 92.1562 194.514 93.8086H181.4C181.471 95.7305 182.074 97.0781 183.211 97.8516C183.902 98.332 184.734 98.5723 185.707 98.5723C186.738 98.5723 187.576 98.2793 188.221 97.6934C188.572 97.377 188.883 96.9375 189.152 96.375H194.268C194.139 97.5117 193.547 98.666 192.492 99.8379C190.852 101.701 188.555 102.633 185.602 102.633C183.164 102.633 181.014 101.848 179.15 100.277C177.287 98.707 176.355 96.1523 176.355 92.6133C176.355 89.2969 177.193 86.7539 178.869 84.9844C180.557 83.2148 182.742 82.3301 185.426 82.3301ZM208.523 82.3828C210.504 82.3828 212.121 82.9043 213.375 83.9473C214.641 84.9785 215.273 86.6953 215.273 89.0977V102H210.141V90.3457C210.141 89.3379 210.006 88.5645 209.736 88.0254C209.244 87.041 208.307 86.5488 206.924 86.5488C205.225 86.5488 204.059 87.2695 203.426 88.7109C203.098 89.4727 202.934 90.4453 202.934 91.6289V102H197.941V82.875H202.775V85.6699C203.42 84.6855 204.029 83.9766 204.604 83.543C205.635 82.7695 206.941 82.3828 208.523 82.3828ZM217.945 86.584V83.0156H220.617V77.6719H225.574V83.0156H228.686V86.584H225.574V96.709C225.574 97.4941 225.674 97.9863 225.873 98.1855C226.072 98.373 226.682 98.4668 227.701 98.4668C227.854 98.4668 228.012 98.4668 228.176 98.4668C228.352 98.4551 228.521 98.4434 228.686 98.4316V102.176L226.312 102.264C223.945 102.346 222.328 101.936 221.461 101.033C220.898 100.459 220.617 99.5742 220.617 98.3789V86.584H217.945ZM235.805 95.8828C235.91 96.7734 236.139 97.4062 236.49 97.7812C237.111 98.4492 238.26 98.7832 239.936 98.7832C240.92 98.7832 241.699 98.6367 242.273 98.3438C242.859 98.0508 243.152 97.6113 243.152 97.0254C243.152 96.4629 242.918 96.0352 242.449 95.7422C241.98 95.4492 240.24 94.9453 237.229 94.2305C235.061 93.6914 233.531 93.0176 232.641 92.209C231.75 91.4121 231.305 90.2637 231.305 88.7637C231.305 86.9941 231.996 85.4766 233.379 84.2109C234.773 82.9336 236.73 82.2949 239.25 82.2949C241.641 82.2949 243.586 82.7754 245.086 83.7363C246.598 84.6855 247.465 86.332 247.688 88.6758H242.678C242.607 88.0312 242.426 87.5215 242.133 87.1465C241.582 86.4668 240.645 86.127 239.32 86.127C238.23 86.127 237.451 86.2969 236.982 86.6367C236.525 86.9766 236.297 87.375 236.297 87.832C236.297 88.4062 236.543 88.8223 237.035 89.0801C237.527 89.3496 239.268 89.8125 242.256 90.4688C244.248 90.9375 245.742 91.6465 246.738 92.5957C247.723 93.5566 248.215 94.7578 248.215 96.1992C248.215 98.0977 247.506 99.6504 246.088 100.857C244.682 102.053 242.502 102.65 239.549 102.65C236.537 102.65 234.311 102.018 232.869 100.752C231.439 99.4746 230.725 97.8516 230.725 95.8828H235.805ZM251.854 96.7617H257.18V102H251.854V96.7617Z" fill="#240D57"/>
<path d="M86.0918 59.002C86.2559 60.1855 86.5781 61.0703 87.0586 61.6562C87.9375 62.7227 89.4434 63.2559 91.5762 63.2559C92.8535 63.2559 93.8906 63.1152 94.6875 62.834C96.1992 62.2949 96.9551 61.293 96.9551 59.8281C96.9551 58.9727 96.5801 58.3105 95.8301 57.8418C95.0801 57.3848 93.9023 56.9805 92.2969 56.6289L89.5547 56.0137C86.8594 55.4043 84.9961 54.7422 83.9648 54.0273C82.2188 52.832 81.3457 50.9629 81.3457 48.4199C81.3457 46.0996 82.1895 44.1719 83.877 42.6367C85.5645 41.1016 88.043 40.334 91.3125 40.334C94.043 40.334 96.3691 41.0605 98.291 42.5137C100.225 43.9551 101.238 46.0527 101.332 48.8066H96.1289C96.0352 47.248 95.3555 46.1406 94.0898 45.4844C93.2461 45.0508 92.1973 44.834 90.9434 44.834C89.5488 44.834 88.4355 45.1152 87.6035 45.6777C86.7715 46.2402 86.3555 47.0254 86.3555 48.0332C86.3555 48.959 86.7656 49.6504 87.5859 50.1074C88.1133 50.4121 89.2383 50.7695 90.9609 51.1797L95.4258 52.252C97.3828 52.7207 98.8594 53.3477 99.8555 54.1328C101.402 55.3516 102.176 57.1152 102.176 59.4238C102.176 61.791 101.268 63.7598 99.4512 65.3301C97.6465 66.8887 95.0918 67.668 91.7871 67.668C88.4121 67.668 85.7578 66.9004 83.8242 65.3652C81.8906 63.8184 80.9238 61.6973 80.9238 59.002H86.0918ZM116.396 47.3828C118.377 47.3828 119.994 47.9043 121.248 48.9473C122.514 49.9785 123.146 51.6953 123.146 54.0977V67H118.014V55.3457C118.014 54.3379 117.879 53.5645 117.609 53.0254C117.117 52.041 116.18 51.5488 114.797 51.5488C113.098 51.5488 111.932 52.2695 111.299 53.7109C110.971 54.4727 110.807 55.4453 110.807 56.6289V67H105.814V47.875H110.648V50.6699C111.293 49.6855 111.902 48.9766 112.477 48.543C113.508 47.7695 114.814 47.3828 116.396 47.3828ZM138.352 57.6836C138.035 57.8828 137.713 58.0469 137.385 58.1758C137.068 58.293 136.629 58.4043 136.066 58.5098L134.941 58.7207C133.887 58.9082 133.131 59.1367 132.674 59.4062C131.9 59.8633 131.514 60.5723 131.514 61.5332C131.514 62.3887 131.748 63.0098 132.217 63.3965C132.697 63.7715 133.277 63.959 133.957 63.959C135.035 63.959 136.025 63.6426 136.928 63.0098C137.842 62.377 138.316 61.2227 138.352 59.5469V57.6836ZM135.311 55.3457C136.236 55.2285 136.898 55.082 137.297 54.9062C138.012 54.6016 138.369 54.127 138.369 53.4824C138.369 52.6973 138.094 52.1582 137.543 51.8652C137.004 51.5605 136.207 51.4082 135.152 51.4082C133.969 51.4082 133.131 51.7012 132.639 52.2871C132.287 52.7207 132.053 53.3066 131.936 54.0449H127.102C127.207 52.3691 127.676 50.9922 128.508 49.9141C129.832 48.2266 132.105 47.3828 135.328 47.3828C137.426 47.3828 139.289 47.7988 140.918 48.6309C142.547 49.4629 143.361 51.0332 143.361 53.3418V62.1309C143.361 62.7402 143.373 63.4785 143.396 64.3457C143.432 65.002 143.531 65.4473 143.695 65.6816C143.859 65.916 144.105 66.1094 144.434 66.2617V67H138.984C138.832 66.6133 138.727 66.25 138.668 65.9102C138.609 65.5703 138.562 65.1836 138.527 64.75C137.836 65.5 137.039 66.1387 136.137 66.666C135.059 67.2871 133.84 67.5977 132.48 67.5977C130.746 67.5977 129.311 67.1055 128.174 66.1211C127.049 65.125 126.486 63.7188 126.486 61.9023C126.486 59.5469 127.395 57.8418 129.211 56.7871C130.207 56.2129 131.672 55.8027 133.605 55.5566L135.311 55.3457ZM161.027 57.4199C161.027 55.9434 160.688 54.6367 160.008 53.5C159.34 52.3633 158.25 51.7949 156.738 51.7949C154.922 51.7949 153.674 52.6562 152.994 54.3789C152.643 55.293 152.467 56.4531 152.467 57.8594C152.467 60.0859 153.059 61.6504 154.242 62.5527C154.945 63.0801 155.777 63.3438 156.738 63.3438C158.133 63.3438 159.193 62.8047 159.92 61.7266C160.658 60.6484 161.027 59.2129 161.027 57.4199ZM158.18 47.418C160.418 47.418 162.311 48.2441 163.857 49.8965C165.416 51.5488 166.195 53.9746 166.195 57.1738C166.195 60.5488 165.434 63.1211 163.91 64.8906C162.398 66.6602 160.447 67.5449 158.057 67.5449C156.533 67.5449 155.268 67.1641 154.26 66.4023C153.709 65.9805 153.17 65.3652 152.643 64.5566V74.541H147.686V47.8398H152.484V50.6699C153.023 49.8379 153.598 49.1816 154.207 48.7012C155.32 47.8457 156.645 47.418 158.18 47.418ZM181.277 54.7129C181.184 53.998 180.943 53.3535 180.557 52.7793C179.994 52.0059 179.121 51.6191 177.938 51.6191C176.25 51.6191 175.096 52.457 174.475 54.1328C174.146 55.0234 173.982 56.207 173.982 57.6836C173.982 59.0898 174.146 60.2207 174.475 61.0762C175.072 62.6699 176.197 63.4668 177.85 63.4668C179.021 63.4668 179.854 63.1504 180.346 62.5176C180.838 61.8848 181.137 61.0645 181.242 60.0566H186.357C186.24 61.5801 185.689 63.0215 184.705 64.3809C183.135 66.5723 180.809 67.668 177.727 67.668C174.645 67.668 172.377 66.7539 170.924 64.9258C169.471 63.0977 168.744 60.7246 168.744 57.8066C168.744 54.5137 169.547 51.9531 171.152 50.125C172.758 48.2969 174.973 47.3828 177.797 47.3828C180.199 47.3828 182.162 47.9219 183.686 49C185.221 50.0781 186.129 51.9824 186.41 54.7129H181.277ZM200.438 47.3477C201.621 47.3477 202.693 47.5527 203.654 47.9629C204.627 48.373 205.424 49 206.045 49.8438C206.572 50.5586 206.895 51.2969 207.012 52.0586C207.129 52.8086 207.188 54.0391 207.188 55.75V67H202.072V55.3457C202.072 54.3145 201.896 53.4824 201.545 52.8496C201.088 51.959 200.221 51.5137 198.943 51.5137C197.619 51.5137 196.611 51.959 195.92 52.8496C195.24 53.7285 194.9 54.9883 194.9 56.6289V67H189.908V41.1777H194.9V50.3359C195.627 49.2227 196.465 48.4492 197.414 48.0156C198.375 47.5703 199.383 47.3477 200.438 47.3477ZM222.445 57.6836C222.129 57.8828 221.807 58.0469 221.479 58.1758C221.162 58.293 220.723 58.4043 220.16 58.5098L219.035 58.7207C217.98 58.9082 217.225 59.1367 216.768 59.4062C215.994 59.8633 215.607 60.5723 215.607 61.5332C215.607 62.3887 215.842 63.0098 216.311 63.3965C216.791 63.7715 217.371 63.959 218.051 63.959C219.129 63.959 220.119 63.6426 221.021 63.0098C221.936 62.377 222.41 61.2227 222.445 59.5469V57.6836ZM219.404 55.3457C220.33 55.2285 220.992 55.082 221.391 54.9062C222.105 54.6016 222.463 54.127 222.463 53.4824C222.463 52.6973 222.188 52.1582 221.637 51.8652C221.098 51.5605 220.301 51.4082 219.246 51.4082C218.062 51.4082 217.225 51.7012 216.732 52.2871C216.381 52.7207 216.146 53.3066 216.029 54.0449H211.195C211.301 52.3691 211.77 50.9922 212.602 49.9141C213.926 48.2266 216.199 47.3828 219.422 47.3828C221.52 47.3828 223.383 47.7988 225.012 48.6309C226.641 49.4629 227.455 51.0332 227.455 53.3418V62.1309C227.455 62.7402 227.467 63.4785 227.49 64.3457C227.525 65.002 227.625 65.4473 227.789 65.6816C227.953 65.916 228.199 66.1094 228.527 66.2617V67H223.078C222.926 66.6133 222.82 66.25 222.762 65.9102C222.703 65.5703 222.656 65.1836 222.621 64.75C221.93 65.5 221.133 66.1387 220.23 66.666C219.152 67.2871 217.934 67.5977 216.574 67.5977C214.84 67.5977 213.404 67.1055 212.268 66.1211C211.143 65.125 210.58 63.7188 210.58 61.9023C210.58 59.5469 211.488 57.8418 213.305 56.7871C214.301 56.2129 215.766 55.8027 217.699 55.5566L219.404 55.3457ZM229.951 51.584V48.0156H232.623V42.6719H237.58V48.0156H240.691V51.584H237.58V61.709C237.58 62.4941 237.68 62.9863 237.879 63.1855C238.078 63.373 238.688 63.4668 239.707 63.4668C239.859 63.4668 240.018 63.4668 240.182 63.4668C240.357 63.4551 240.527 63.4434 240.691 63.4316V67.1758L238.318 67.2637C235.951 67.3457 234.334 66.9355 233.467 66.0332C232.904 65.459 232.623 64.5742 232.623 63.3789V51.584H229.951Z" fill="url(#paint0_linear_9_257)"/>
<path d="M25.7413 139V127.48H33.4053V128.408H26.8293V132.568H32.7653V133.496H26.8293V138.072H33.5653V139H25.7413ZM40.8026 134.648C40.3972 134.819 39.9866 134.931 39.5706 134.984C39.1546 135.037 38.7386 135.08 38.3226 135.112C37.5866 135.165 37.0106 135.331 36.5946 135.608C36.1892 135.885 35.9866 136.307 35.9866 136.872C35.9866 137.128 36.0346 137.352 36.1306 137.544C36.2372 137.725 36.3706 137.88 36.5306 138.008C36.7012 138.125 36.8932 138.216 37.1066 138.28C37.3306 138.333 37.5546 138.36 37.7786 138.36C38.1626 138.36 38.5359 138.312 38.8986 138.216C39.2612 138.12 39.5812 137.976 39.8586 137.784C40.1466 137.581 40.3759 137.331 40.5466 137.032C40.7172 136.723 40.8026 136.36 40.8026 135.944V134.648ZM39.1866 134.168C39.3679 134.147 39.5812 134.115 39.8266 134.072C40.0826 134.029 40.2906 133.971 40.4506 133.896C40.6106 133.821 40.7066 133.699 40.7386 133.528C40.7812 133.347 40.8026 133.181 40.8026 133.032C40.8026 132.541 40.6426 132.141 40.3226 131.832C40.0132 131.512 39.4852 131.352 38.7386 131.352C38.4079 131.352 38.1039 131.384 37.8266 131.448C37.5492 131.501 37.3039 131.603 37.0906 131.752C36.8879 131.891 36.7172 132.083 36.5786 132.328C36.4506 132.563 36.3652 132.861 36.3226 133.224H35.3466C35.3786 132.733 35.4906 132.317 35.6826 131.976C35.8746 131.624 36.1199 131.341 36.4186 131.128C36.7279 130.904 37.0799 130.744 37.4746 130.648C37.8799 130.541 38.3066 130.488 38.7546 130.488C39.1706 130.488 39.5599 130.536 39.9226 130.632C40.2959 130.717 40.6159 130.861 40.8826 131.064C41.1599 131.256 41.3732 131.517 41.5226 131.848C41.6826 132.179 41.7626 132.584 41.7626 133.064V137.576C41.7626 137.949 41.8266 138.189 41.9546 138.296C42.0932 138.392 42.3652 138.365 42.7706 138.216V138.968C42.6959 138.989 42.5839 139.021 42.4346 139.064C42.2959 139.107 42.1572 139.128 42.0186 139.128C41.8692 139.128 41.7252 139.112 41.5866 139.08C41.4266 139.059 41.2986 139.011 41.2026 138.936C41.1066 138.851 41.0266 138.755 40.9626 138.648C40.9092 138.531 40.8719 138.408 40.8506 138.28C40.8292 138.141 40.8186 137.997 40.8186 137.848C40.4132 138.296 39.9492 138.637 39.4266 138.872C38.9039 139.107 38.3386 139.224 37.7306 139.224C37.3679 139.224 37.0159 139.176 36.6746 139.08C36.3439 138.984 36.0506 138.835 35.7946 138.632C35.5386 138.429 35.3359 138.184 35.1866 137.896C35.0372 137.597 34.9626 137.245 34.9626 136.84C34.9626 135.432 35.9279 134.6 37.8586 134.344L39.1866 134.168ZM44.8292 136.408C44.9785 137.123 45.2452 137.629 45.6292 137.928C46.0239 138.216 46.5839 138.36 47.3092 138.36C47.6612 138.36 47.9652 138.317 48.2212 138.232C48.4772 138.147 48.6852 138.035 48.8452 137.896C49.0159 137.747 49.1439 137.581 49.2292 137.4C49.3145 137.219 49.3572 137.027 49.3572 136.824C49.3572 136.419 49.2239 136.12 48.9572 135.928C48.7012 135.725 48.3759 135.571 47.9812 135.464C47.5865 135.347 47.1599 135.251 46.7012 135.176C46.2425 135.091 45.8159 134.968 45.4212 134.808C45.0265 134.648 44.6959 134.419 44.4292 134.12C44.1732 133.821 44.0452 133.4 44.0452 132.856C44.0452 132.163 44.2959 131.597 44.7972 131.16C45.3092 130.712 46.0292 130.488 46.9572 130.488C47.8532 130.488 48.5785 130.691 49.1332 131.096C49.6985 131.491 50.0399 132.157 50.1572 133.096H49.1812C49.0959 132.456 48.8505 132.008 48.4452 131.752C48.0505 131.485 47.5492 131.352 46.9412 131.352C46.3332 131.352 45.8692 131.485 45.5492 131.752C45.2292 132.008 45.0692 132.349 45.0692 132.776C45.0692 133.149 45.1972 133.437 45.4532 133.64C45.7199 133.832 46.0505 133.992 46.4452 134.12C46.8399 134.237 47.2665 134.344 47.7252 134.44C48.1839 134.536 48.6105 134.675 49.0052 134.856C49.3999 135.027 49.7252 135.261 49.9812 135.56C50.2479 135.859 50.3812 136.275 50.3812 136.808C50.3812 137.203 50.2959 137.555 50.1252 137.864C49.9545 138.163 49.7199 138.413 49.4212 138.616C49.1225 138.819 48.7652 138.968 48.3492 139.064C47.9439 139.171 47.4959 139.224 47.0052 139.224C46.5145 139.224 46.0772 139.149 45.6932 139C45.3199 138.861 44.9999 138.664 44.7332 138.408C44.4665 138.152 44.2585 137.853 44.1092 137.512C43.9599 137.171 43.8745 136.803 43.8532 136.408H44.8292ZM52.1319 139V130.712H53.0919V139H52.1319ZM52.0839 128.904V127.48H53.1399V128.904H52.0839ZM55.6788 139V127.48H56.6388V139H55.6788ZM59.0177 141.256C59.1457 141.277 59.2737 141.299 59.4017 141.32C59.5404 141.341 59.679 141.352 59.8177 141.352C60.0844 141.352 60.303 141.267 60.4737 141.096C60.6444 140.925 60.783 140.717 60.8897 140.472C61.007 140.237 61.103 139.987 61.1777 139.72C61.2524 139.464 61.3377 139.245 61.4337 139.064L58.2177 130.712H59.2897L61.9457 137.832L64.6017 130.712H65.6417L62.5537 138.888C62.3617 139.411 62.175 139.88 61.9937 140.296C61.823 140.712 61.6364 141.064 61.4337 141.352C61.2417 141.651 61.023 141.875 60.7777 142.024C60.543 142.184 60.2604 142.264 59.9297 142.264C59.759 142.264 59.5937 142.253 59.4337 142.232C59.2844 142.211 59.1457 142.184 59.0177 142.152V141.256ZM71.5348 139V127.48H72.4948V131.864C72.8788 131.459 73.2735 131.128 73.6788 130.872C74.0948 130.616 74.5908 130.488 75.1668 130.488C75.6788 130.488 76.1535 130.579 76.5908 130.76C77.0281 130.931 77.3961 131.235 77.6948 131.672C77.8975 131.971 78.0148 132.28 78.0468 132.6C78.0895 132.909 78.1108 133.235 78.1108 133.576V139H77.1508V133.592C77.1508 132.845 76.9855 132.285 76.6548 131.912C76.3241 131.539 75.7748 131.352 75.0068 131.352C74.7081 131.352 74.4361 131.4 74.1908 131.496C73.9455 131.581 73.7215 131.699 73.5188 131.848C73.3268 131.997 73.1615 132.168 73.0228 132.36C72.8841 132.552 72.7775 132.755 72.7028 132.968C72.6068 133.235 72.5481 133.491 72.5268 133.736C72.5055 133.981 72.4948 134.248 72.4948 134.536V139H71.5348ZM83.7214 139.224C83.1881 139.213 82.6868 139.117 82.2174 138.936C81.7588 138.755 81.3534 138.483 81.0014 138.12C80.6601 137.757 80.3881 137.304 80.1854 136.76C79.9828 136.216 79.8814 135.581 79.8814 134.856C79.8814 134.248 79.9614 133.683 80.1214 133.16C80.2814 132.627 80.5214 132.163 80.8414 131.768C81.1614 131.373 81.5614 131.064 82.0414 130.84C82.5214 130.605 83.0814 130.488 83.7214 130.488C84.3721 130.488 84.9374 130.605 85.4174 130.84C85.8974 131.064 86.2974 131.373 86.6174 131.768C86.9374 132.152 87.1721 132.611 87.3214 133.144C87.4814 133.677 87.5614 134.248 87.5614 134.856C87.5614 135.517 87.4708 136.115 87.2894 136.648C87.1081 137.181 86.8468 137.64 86.5054 138.024C86.1748 138.408 85.7694 138.707 85.2894 138.92C84.8201 139.123 84.2974 139.224 83.7214 139.224ZM86.5374 134.856C86.5374 134.365 86.4841 133.907 86.3774 133.48C86.2708 133.053 86.1054 132.685 85.8814 132.376C85.6574 132.056 85.3694 131.805 85.0174 131.624C84.6654 131.443 84.2334 131.352 83.7214 131.352C83.2201 131.352 82.7881 131.453 82.4254 131.656C82.0734 131.848 81.7854 132.109 81.5614 132.44C81.3374 132.76 81.1721 133.133 81.0654 133.56C80.9588 133.976 80.9054 134.408 80.9054 134.856C80.9054 135.368 80.9641 135.843 81.0814 136.28C81.2094 136.707 81.3908 137.075 81.6254 137.384C81.8601 137.693 82.1534 137.933 82.5054 138.104C82.8574 138.275 83.2628 138.36 83.7214 138.36C84.2228 138.36 84.6494 138.264 85.0014 138.072C85.3641 137.869 85.6574 137.603 85.8814 137.272C86.1054 136.941 86.2708 136.568 86.3774 136.152C86.4841 135.736 86.5374 135.304 86.5374 134.856ZM89.8761 136.408C90.0254 137.123 90.2921 137.629 90.6761 137.928C91.0707 138.216 91.6307 138.36 92.3561 138.36C92.7081 138.36 93.0121 138.317 93.2681 138.232C93.5241 138.147 93.7321 138.035 93.8921 137.896C94.0627 137.747 94.1907 137.581 94.2761 137.4C94.3614 137.219 94.4041 137.027 94.4041 136.824C94.4041 136.419 94.2707 136.12 94.0041 135.928C93.7481 135.725 93.4227 135.571 93.0281 135.464C92.6334 135.347 92.2067 135.251 91.7481 135.176C91.2894 135.091 90.8627 134.968 90.4681 134.808C90.0734 134.648 89.7427 134.419 89.4761 134.12C89.2201 133.821 89.0921 133.4 89.0921 132.856C89.0921 132.163 89.3427 131.597 89.8441 131.16C90.3561 130.712 91.0761 130.488 92.0041 130.488C92.9001 130.488 93.6254 130.691 94.1801 131.096C94.7454 131.491 95.0867 132.157 95.2041 133.096H94.2281C94.1427 132.456 93.8974 132.008 93.4921 131.752C93.0974 131.485 92.5961 131.352 91.9881 131.352C91.3801 131.352 90.9161 131.485 90.5961 131.752C90.2761 132.008 90.1161 132.349 90.1161 132.776C90.1161 133.149 90.2441 133.437 90.5001 133.64C90.7667 133.832 91.0974 133.992 91.4921 134.12C91.8867 134.237 92.3134 134.344 92.7721 134.44C93.2307 134.536 93.6574 134.675 94.0521 134.856C94.4467 135.027 94.7721 135.261 95.0281 135.56C95.2947 135.859 95.4281 136.275 95.4281 136.808C95.4281 137.203 95.3427 137.555 95.1721 137.864C95.0014 138.163 94.7667 138.413 94.4681 138.616C94.1694 138.819 93.8121 138.968 93.3961 139.064C92.9907 139.171 92.5427 139.224 92.0521 139.224C91.5614 139.224 91.1241 139.149 90.7401 139C90.3667 138.861 90.0467 138.664 89.7801 138.408C89.5134 138.152 89.3054 137.853 89.1561 137.512C89.0067 137.171 88.9214 136.803 88.9001 136.408H89.8761ZM100.228 139.032C100.111 139.053 99.9561 139.091 99.7641 139.144C99.5721 139.197 99.3587 139.224 99.1241 139.224C98.6441 139.224 98.2761 139.107 98.0201 138.872C97.7747 138.627 97.6521 138.195 97.6521 137.576V131.512H96.4841V130.712H97.6521V128.408H98.6121V130.712H100.164V131.512H98.6121V137.192C98.6121 137.395 98.6174 137.571 98.6281 137.72C98.6387 137.869 98.6707 137.992 98.7241 138.088C98.7774 138.184 98.8574 138.253 98.9641 138.296C99.0814 138.339 99.2414 138.36 99.4441 138.36C99.5721 138.36 99.7001 138.349 99.8281 138.328C99.9667 138.307 100.1 138.28 100.228 138.248V139.032ZM111.646 134.648C111.241 134.819 110.83 134.931 110.414 134.984C109.998 135.037 109.582 135.08 109.166 135.112C108.43 135.165 107.854 135.331 107.438 135.608C107.033 135.885 106.83 136.307 106.83 136.872C106.83 137.128 106.878 137.352 106.974 137.544C107.081 137.725 107.214 137.88 107.374 138.008C107.545 138.125 107.737 138.216 107.95 138.28C108.174 138.333 108.398 138.36 108.622 138.36C109.006 138.36 109.38 138.312 109.742 138.216C110.105 138.12 110.425 137.976 110.702 137.784C110.99 137.581 111.22 137.331 111.39 137.032C111.561 136.723 111.646 136.36 111.646 135.944V134.648ZM110.03 134.168C110.212 134.147 110.425 134.115 110.67 134.072C110.926 134.029 111.134 133.971 111.294 133.896C111.454 133.821 111.55 133.699 111.582 133.528C111.625 133.347 111.646 133.181 111.646 133.032C111.646 132.541 111.486 132.141 111.166 131.832C110.857 131.512 110.329 131.352 109.582 131.352C109.252 131.352 108.948 131.384 108.67 131.448C108.393 131.501 108.148 131.603 107.934 131.752C107.732 131.891 107.561 132.083 107.422 132.328C107.294 132.563 107.209 132.861 107.166 133.224H106.19C106.222 132.733 106.334 132.317 106.526 131.976C106.718 131.624 106.964 131.341 107.262 131.128C107.572 130.904 107.924 130.744 108.318 130.648C108.724 130.541 109.15 130.488 109.598 130.488C110.014 130.488 110.404 130.536 110.766 130.632C111.14 130.717 111.46 130.861 111.726 131.064C112.004 131.256 112.217 131.517 112.366 131.848C112.526 132.179 112.606 132.584 112.606 133.064V137.576C112.606 137.949 112.67 138.189 112.798 138.296C112.937 138.392 113.209 138.365 113.614 138.216V138.968C113.54 138.989 113.428 139.021 113.278 139.064C113.14 139.107 113.001 139.128 112.862 139.128C112.713 139.128 112.569 139.112 112.43 139.08C112.27 139.059 112.142 139.011 112.046 138.936C111.95 138.851 111.87 138.755 111.806 138.648C111.753 138.531 111.716 138.408 111.694 138.28C111.673 138.141 111.662 137.997 111.662 137.848C111.257 138.296 110.793 138.637 110.27 138.872C109.748 139.107 109.182 139.224 108.574 139.224C108.212 139.224 107.86 139.176 107.518 139.08C107.188 138.984 106.894 138.835 106.638 138.632C106.382 138.429 106.18 138.184 106.03 137.896C105.881 137.597 105.806 137.245 105.806 136.84C105.806 135.432 106.772 134.6 108.702 134.344L110.03 134.168ZM116.073 139H115.113V130.712H116.073V131.864C116.457 131.459 116.852 131.128 117.257 130.872C117.673 130.616 118.169 130.488 118.745 130.488C119.257 130.488 119.732 130.579 120.169 130.76C120.606 130.931 120.974 131.235 121.273 131.672C121.476 131.971 121.593 132.28 121.625 132.6C121.668 132.909 121.689 133.235 121.689 133.576V139H120.729V133.592C120.729 132.845 120.564 132.285 120.233 131.912C119.902 131.539 119.353 131.352 118.585 131.352C118.286 131.352 118.014 131.4 117.769 131.496C117.524 131.581 117.3 131.699 117.097 131.848C116.905 131.997 116.74 132.168 116.601 132.36C116.462 132.552 116.356 132.755 116.281 132.968C116.185 133.235 116.126 133.491 116.105 133.736C116.084 133.981 116.073 134.248 116.073 134.536V139ZM130.404 134.824C130.404 134.355 130.34 133.912 130.212 133.496C130.084 133.069 129.897 132.701 129.652 132.392C129.417 132.072 129.124 131.821 128.772 131.64C128.43 131.448 128.041 131.352 127.604 131.352C127.102 131.352 126.67 131.453 126.308 131.656C125.945 131.848 125.646 132.115 125.412 132.456C125.177 132.797 125.006 133.197 124.9 133.656C124.793 134.104 124.75 134.589 124.772 135.112C124.772 135.635 124.841 136.099 124.98 136.504C125.129 136.899 125.332 137.235 125.588 137.512C125.844 137.789 126.142 138.003 126.484 138.152C126.825 138.291 127.198 138.36 127.604 138.36C128.052 138.36 128.452 138.269 128.804 138.088C129.156 137.907 129.449 137.661 129.684 137.352C129.918 137.032 130.094 136.659 130.212 136.232C130.34 135.795 130.404 135.325 130.404 134.824ZM130.404 127.48H131.364V139H130.404V137.544H130.372C130.233 137.821 130.052 138.067 129.828 138.28C129.614 138.483 129.374 138.653 129.108 138.792C128.852 138.931 128.585 139.037 128.308 139.112C128.03 139.187 127.758 139.224 127.492 139.224C126.82 139.224 126.249 139.112 125.78 138.888C125.31 138.664 124.921 138.36 124.612 137.976C124.313 137.581 124.094 137.117 123.956 136.584C123.817 136.051 123.748 135.48 123.748 134.872C123.748 134.296 123.822 133.741 123.972 133.208C124.121 132.675 124.345 132.211 124.644 131.816C124.953 131.411 125.337 131.091 125.796 130.856C126.265 130.611 126.814 130.488 127.444 130.488C128.03 130.488 128.59 130.621 129.124 130.888C129.668 131.144 130.094 131.528 130.404 132.04V127.48ZM138.798 136.408C138.947 137.123 139.214 137.629 139.598 137.928C139.993 138.216 140.553 138.36 141.278 138.36C141.63 138.36 141.934 138.317 142.19 138.232C142.446 138.147 142.654 138.035 142.814 137.896C142.985 137.747 143.113 137.581 143.198 137.4C143.283 137.219 143.326 137.027 143.326 136.824C143.326 136.419 143.193 136.12 142.926 135.928C142.67 135.725 142.345 135.571 141.95 135.464C141.555 135.347 141.129 135.251 140.67 135.176C140.211 135.091 139.785 134.968 139.39 134.808C138.995 134.648 138.665 134.419 138.398 134.12C138.142 133.821 138.014 133.4 138.014 132.856C138.014 132.163 138.265 131.597 138.766 131.16C139.278 130.712 139.998 130.488 140.926 130.488C141.822 130.488 142.547 130.691 143.102 131.096C143.667 131.491 144.009 132.157 144.126 133.096H143.15C143.065 132.456 142.819 132.008 142.414 131.752C142.019 131.485 141.518 131.352 140.91 131.352C140.302 131.352 139.838 131.485 139.518 131.752C139.198 132.008 139.038 132.349 139.038 132.776C139.038 133.149 139.166 133.437 139.422 133.64C139.689 133.832 140.019 133.992 140.414 134.12C140.809 134.237 141.235 134.344 141.694 134.44C142.153 134.536 142.579 134.675 142.974 134.856C143.369 135.027 143.694 135.261 143.95 135.56C144.217 135.859 144.35 136.275 144.35 136.808C144.35 137.203 144.265 137.555 144.094 137.864C143.923 138.163 143.689 138.413 143.39 138.616C143.091 138.819 142.734 138.968 142.318 139.064C141.913 139.171 141.465 139.224 140.974 139.224C140.483 139.224 140.046 139.149 139.662 139C139.289 138.861 138.969 138.664 138.702 138.408C138.435 138.152 138.227 137.853 138.078 137.512C137.929 137.171 137.843 136.803 137.822 136.408H138.798ZM146.238 139V127.48H147.198V131.864C147.582 131.459 147.977 131.128 148.382 130.872C148.798 130.616 149.294 130.488 149.87 130.488C150.382 130.488 150.857 130.579 151.294 130.76C151.731 130.931 152.099 131.235 152.398 131.672C152.601 131.971 152.718 132.28 152.75 132.6C152.793 132.909 152.814 133.235 152.814 133.576V139H151.854V133.592C151.854 132.845 151.689 132.285 151.358 131.912C151.027 131.539 150.478 131.352 149.71 131.352C149.411 131.352 149.139 131.4 148.894 131.496C148.649 131.581 148.425 131.699 148.222 131.848C148.03 131.997 147.865 132.168 147.726 132.36C147.587 132.552 147.481 132.755 147.406 132.968C147.31 133.235 147.251 133.491 147.23 133.736C147.209 133.981 147.198 134.248 147.198 134.536V139H146.238ZM160.553 134.648C160.147 134.819 159.737 134.931 159.321 134.984C158.905 135.037 158.489 135.08 158.073 135.112C157.337 135.165 156.761 135.331 156.345 135.608C155.939 135.885 155.737 136.307 155.737 136.872C155.737 137.128 155.785 137.352 155.881 137.544C155.987 137.725 156.121 137.88 156.281 138.008C156.451 138.125 156.643 138.216 156.857 138.28C157.081 138.333 157.305 138.36 157.529 138.36C157.913 138.36 158.286 138.312 158.649 138.216C159.011 138.12 159.331 137.976 159.609 137.784C159.897 137.581 160.126 137.331 160.297 137.032C160.467 136.723 160.553 136.36 160.553 135.944V134.648ZM158.937 134.168C159.118 134.147 159.331 134.115 159.577 134.072C159.833 134.029 160.041 133.971 160.201 133.896C160.361 133.821 160.457 133.699 160.489 133.528C160.531 133.347 160.553 133.181 160.553 133.032C160.553 132.541 160.393 132.141 160.073 131.832C159.763 131.512 159.235 131.352 158.489 131.352C158.158 131.352 157.854 131.384 157.577 131.448C157.299 131.501 157.054 131.603 156.841 131.752C156.638 131.891 156.467 132.083 156.329 132.328C156.201 132.563 156.115 132.861 156.073 133.224H155.097C155.129 132.733 155.241 132.317 155.433 131.976C155.625 131.624 155.87 131.341 156.169 131.128C156.478 130.904 156.83 130.744 157.225 130.648C157.63 130.541 158.057 130.488 158.505 130.488C158.921 130.488 159.31 130.536 159.673 130.632C160.046 130.717 160.366 130.861 160.633 131.064C160.91 131.256 161.123 131.517 161.273 131.848C161.433 132.179 161.513 132.584 161.513 133.064V137.576C161.513 137.949 161.577 138.189 161.705 138.296C161.843 138.392 162.115 138.365 162.521 138.216V138.968C162.446 138.989 162.334 139.021 162.185 139.064C162.046 139.107 161.907 139.128 161.769 139.128C161.619 139.128 161.475 139.112 161.337 139.08C161.177 139.059 161.049 139.011 160.953 138.936C160.857 138.851 160.777 138.755 160.713 138.648C160.659 138.531 160.622 138.408 160.601 138.28C160.579 138.141 160.569 137.997 160.569 137.848C160.163 138.296 159.699 138.637 159.177 138.872C158.654 139.107 158.089 139.224 157.481 139.224C157.118 139.224 156.766 139.176 156.425 139.08C156.094 138.984 155.801 138.835 155.545 138.632C155.289 138.429 155.086 138.184 154.937 137.896C154.787 137.597 154.713 137.245 154.713 136.84C154.713 135.432 155.678 134.6 157.609 134.344L158.937 134.168ZM165.027 139H164.067V130.712H165.027V132.264H165.059C165.326 131.603 165.667 131.144 166.083 130.888C166.51 130.621 167.07 130.488 167.763 130.488V131.528C167.219 131.517 166.771 131.603 166.419 131.784C166.067 131.965 165.785 132.211 165.571 132.52C165.369 132.829 165.225 133.197 165.139 133.624C165.065 134.04 165.027 134.477 165.027 134.936V139ZM175.066 134.28C175.066 133.875 175.007 133.496 174.89 133.144C174.783 132.781 174.618 132.472 174.394 132.216C174.181 131.949 173.909 131.741 173.578 131.592C173.247 131.432 172.869 131.352 172.442 131.352C172.015 131.352 171.637 131.432 171.306 131.592C170.986 131.752 170.709 131.965 170.474 132.232C170.25 132.499 170.069 132.808 169.93 133.16C169.791 133.512 169.701 133.885 169.658 134.28H175.066ZM169.658 135.08C169.658 135.528 169.717 135.955 169.834 136.36C169.951 136.755 170.122 137.101 170.346 137.4C170.581 137.688 170.874 137.923 171.226 138.104C171.578 138.275 171.983 138.36 172.442 138.36C173.071 138.36 173.61 138.195 174.058 137.864C174.506 137.533 174.805 137.064 174.954 136.456H176.026C175.909 136.851 175.754 137.219 175.562 137.56C175.37 137.891 175.13 138.184 174.842 138.44C174.554 138.685 174.213 138.877 173.818 139.016C173.423 139.155 172.965 139.224 172.442 139.224C171.781 139.224 171.21 139.112 170.73 138.888C170.25 138.664 169.855 138.36 169.546 137.976C169.237 137.581 169.007 137.123 168.858 136.6C168.709 136.067 168.634 135.496 168.634 134.888C168.634 134.28 168.719 133.709 168.89 133.176C169.071 132.643 169.322 132.179 169.642 131.784C169.973 131.379 170.373 131.064 170.842 130.84C171.311 130.605 171.845 130.488 172.442 130.488C173.583 130.488 174.479 130.883 175.13 131.672C175.781 132.451 176.101 133.587 176.09 135.08H169.658ZM188.41 134.28C188.41 133.875 188.351 133.496 188.234 133.144C188.127 132.781 187.962 132.472 187.738 132.216C187.524 131.949 187.252 131.741 186.922 131.592C186.591 131.432 186.212 131.352 185.786 131.352C185.359 131.352 184.98 131.432 184.65 131.592C184.33 131.752 184.052 131.965 183.818 132.232C183.594 132.499 183.412 132.808 183.274 133.16C183.135 133.512 183.044 133.885 183.002 134.28H188.41ZM183.002 135.08C183.002 135.528 183.06 135.955 183.178 136.36C183.295 136.755 183.466 137.101 183.69 137.4C183.924 137.688 184.218 137.923 184.57 138.104C184.922 138.275 185.327 138.36 185.786 138.36C186.415 138.36 186.954 138.195 187.402 137.864C187.85 137.533 188.148 137.064 188.298 136.456H189.37C189.252 136.851 189.098 137.219 188.906 137.56C188.714 137.891 188.474 138.184 188.186 138.44C187.898 138.685 187.556 138.877 187.162 139.016C186.767 139.155 186.308 139.224 185.786 139.224C185.124 139.224 184.554 139.112 184.074 138.888C183.594 138.664 183.199 138.36 182.89 137.976C182.58 137.581 182.351 137.123 182.202 136.6C182.052 136.067 181.978 135.496 181.978 134.888C181.978 134.28 182.063 133.709 182.234 133.176C182.415 132.643 182.666 132.179 182.986 131.784C183.316 131.379 183.716 131.064 184.186 130.84C184.655 130.605 185.188 130.488 185.786 130.488C186.927 130.488 187.823 130.883 188.474 131.672C189.124 132.451 189.444 133.587 189.434 135.08H183.002ZM190.42 130.712H191.46L194.148 137.816L196.836 130.712H197.876L194.66 139H193.588L190.42 130.712ZM205.3 134.28C205.3 133.875 205.242 133.496 205.124 133.144C205.018 132.781 204.852 132.472 204.628 132.216C204.415 131.949 204.143 131.741 203.812 131.592C203.482 131.432 203.103 131.352 202.676 131.352C202.25 131.352 201.871 131.432 201.54 131.592C201.22 131.752 200.943 131.965 200.708 132.232C200.484 132.499 200.303 132.808 200.164 133.16C200.026 133.512 199.935 133.885 199.892 134.28H205.3ZM199.892 135.08C199.892 135.528 199.951 135.955 200.068 136.36C200.186 136.755 200.356 137.101 200.58 137.4C200.815 137.688 201.108 137.923 201.46 138.104C201.812 138.275 202.218 138.36 202.676 138.36C203.306 138.36 203.844 138.195 204.292 137.864C204.74 137.533 205.039 137.064 205.188 136.456H206.26C206.143 136.851 205.988 137.219 205.796 137.56C205.604 137.891 205.364 138.184 205.076 138.44C204.788 138.685 204.447 138.877 204.052 139.016C203.658 139.155 203.199 139.224 202.676 139.224C202.015 139.224 201.444 139.112 200.964 138.888C200.484 138.664 200.09 138.36 199.78 137.976C199.471 137.581 199.242 137.123 199.092 136.6C198.943 136.067 198.868 135.496 198.868 134.888C198.868 134.28 198.954 133.709 199.124 133.176C199.306 132.643 199.556 132.179 199.876 131.784C200.207 131.379 200.607 131.064 201.076 130.84C201.546 130.605 202.079 130.488 202.676 130.488C203.818 130.488 204.714 130.883 205.364 131.672C206.015 132.451 206.335 133.587 206.324 135.08H199.892ZM209.151 139H208.191V130.712H209.151V131.864C209.535 131.459 209.93 131.128 210.335 130.872C210.751 130.616 211.247 130.488 211.823 130.488C212.335 130.488 212.81 130.579 213.247 130.76C213.684 130.931 214.052 131.235 214.351 131.672C214.554 131.971 214.671 132.28 214.703 132.6C214.746 132.909 214.767 133.235 214.767 133.576V139H213.807V133.592C213.807 132.845 213.642 132.285 213.311 131.912C212.98 131.539 212.431 131.352 211.663 131.352C211.364 131.352 211.092 131.4 210.847 131.496C210.602 131.581 210.378 131.699 210.175 131.848C209.983 131.997 209.818 132.168 209.679 132.36C209.54 132.552 209.434 132.755 209.359 132.968C209.263 133.235 209.204 133.491 209.183 133.736C209.162 133.981 209.151 134.248 209.151 134.536V139ZM219.994 139.032C219.876 139.053 219.722 139.091 219.53 139.144C219.338 139.197 219.124 139.224 218.89 139.224C218.41 139.224 218.042 139.107 217.786 138.872C217.54 138.627 217.418 138.195 217.418 137.576V131.512H216.25V130.712H217.418V128.408H218.378V130.712H219.93V131.512H218.378V137.192C218.378 137.395 218.383 137.571 218.394 137.72C218.404 137.869 218.436 137.992 218.49 138.088C218.543 138.184 218.623 138.253 218.73 138.296C218.847 138.339 219.007 138.36 219.21 138.36C219.338 138.36 219.466 138.349 219.594 138.328C219.732 138.307 219.866 138.28 219.994 138.248V139.032ZM222.095 136.408C222.244 137.123 222.511 137.629 222.895 137.928C223.289 138.216 223.849 138.36 224.575 138.36C224.927 138.36 225.231 138.317 225.487 138.232C225.743 138.147 225.951 138.035 226.111 137.896C226.281 137.747 226.409 137.581 226.495 137.4C226.58 137.219 226.623 137.027 226.623 136.824C226.623 136.419 226.489 136.12 226.223 135.928C225.967 135.725 225.641 135.571 225.247 135.464C224.852 135.347 224.425 135.251 223.967 135.176C223.508 135.091 223.081 134.968 222.687 134.808C222.292 134.648 221.961 134.419 221.695 134.12C221.439 133.821 221.311 133.4 221.311 132.856C221.311 132.163 221.561 131.597 222.063 131.16C222.575 130.712 223.295 130.488 224.223 130.488C225.119 130.488 225.844 130.691 226.399 131.096C226.964 131.491 227.305 132.157 227.423 133.096H226.447C226.361 132.456 226.116 132.008 225.711 131.752C225.316 131.485 224.815 131.352 224.207 131.352C223.599 131.352 223.135 131.485 222.815 131.752C222.495 132.008 222.335 132.349 222.335 132.776C222.335 133.149 222.463 133.437 222.719 133.64C222.985 133.832 223.316 133.992 223.711 134.12C224.105 134.237 224.532 134.344 224.991 134.44C225.449 134.536 225.876 134.675 226.271 134.856C226.665 135.027 226.991 135.261 227.247 135.56C227.513 135.859 227.647 136.275 227.647 136.808C227.647 137.203 227.561 137.555 227.391 137.864C227.22 138.163 226.985 138.413 226.687 138.616C226.388 138.819 226.031 138.968 225.615 139.064C225.209 139.171 224.761 139.224 224.271 139.224C223.78 139.224 223.343 139.149 222.959 139C222.585 138.861 222.265 138.664 221.999 138.408C221.732 138.152 221.524 137.853 221.375 137.512C221.225 137.171 221.14 136.803 221.119 136.408H222.095ZM240.996 137.72L243.172 130.712H244.148L241.46 139H240.436L238.628 132.04H238.596L236.756 139H235.604L233.076 130.712H234.036L236.18 137.784L238.1 130.712H239.172L240.996 137.72ZM245.398 139V130.712H246.358V139H245.398ZM245.35 128.904V127.48H246.406V128.904H245.35ZM251.712 139.032C251.595 139.053 251.44 139.091 251.248 139.144C251.056 139.197 250.843 139.224 250.608 139.224C250.128 139.224 249.76 139.107 249.504 138.872C249.259 138.627 249.136 138.195 249.136 137.576V131.512H247.968V130.712H249.136V128.408H250.096V130.712H251.648V131.512H250.096V137.192C250.096 137.395 250.102 137.571 250.112 137.72C250.123 137.869 250.155 137.992 250.208 138.088C250.262 138.184 250.342 138.253 250.448 138.296C250.566 138.339 250.726 138.36 250.928 138.36C251.056 138.36 251.184 138.349 251.312 138.328C251.451 138.307 251.584 138.28 251.712 138.248V139.032ZM253.254 139V127.48H254.214V131.864C254.598 131.459 254.992 131.128 255.398 130.872C255.814 130.616 256.31 130.488 256.886 130.488C257.398 130.488 257.872 130.579 258.31 130.76C258.747 130.931 259.115 131.235 259.414 131.672C259.616 131.971 259.734 132.28 259.766 132.6C259.808 132.909 259.83 133.235 259.83 133.576V139H258.87V133.592C258.87 132.845 258.704 132.285 258.374 131.912C258.043 131.539 257.494 131.352 256.726 131.352C256.427 131.352 256.155 131.4 255.91 131.496C255.664 131.581 255.44 131.699 255.238 131.848C255.046 131.997 254.88 132.168 254.742 132.36C254.603 132.552 254.496 132.755 254.422 132.968C254.326 133.235 254.267 133.491 254.246 133.736C254.224 133.981 254.214 134.248 254.214 134.536V139H253.254ZM266.533 141.256C266.661 141.277 266.789 141.299 266.917 141.32C267.056 141.341 267.195 141.352 267.333 141.352C267.6 141.352 267.819 141.267 267.989 141.096C268.16 140.925 268.299 140.717 268.405 140.472C268.523 140.237 268.619 139.987 268.693 139.72C268.768 139.464 268.853 139.245 268.949 139.064L265.733 130.712H266.805L269.461 137.832L272.117 130.712H273.157L270.069 138.888C269.877 139.411 269.691 139.88 269.509 140.296C269.339 140.712 269.152 141.064 268.949 141.352C268.757 141.651 268.539 141.875 268.293 142.024C268.059 142.184 267.776 142.264 267.445 142.264C267.275 142.264 267.109 142.253 266.949 142.232C266.8 142.211 266.661 142.184 266.533 142.152V141.256ZM277.893 139.224C277.36 139.213 276.859 139.117 276.389 138.936C275.931 138.755 275.525 138.483 275.173 138.12C274.832 137.757 274.56 137.304 274.357 136.76C274.155 136.216 274.053 135.581 274.053 134.856C274.053 134.248 274.133 133.683 274.293 133.16C274.453 132.627 274.693 132.163 275.013 131.768C275.333 131.373 275.733 131.064 276.213 130.84C276.693 130.605 277.253 130.488 277.893 130.488C278.544 130.488 279.109 130.605 279.589 130.84C280.069 131.064 280.469 131.373 280.789 131.768C281.109 132.152 281.344 132.611 281.493 133.144C281.653 133.677 281.733 134.248 281.733 134.856C281.733 135.517 281.643 136.115 281.461 136.648C281.28 137.181 281.019 137.64 280.677 138.024C280.347 138.408 279.941 138.707 279.461 138.92C278.992 139.123 278.469 139.224 277.893 139.224ZM280.709 134.856C280.709 134.365 280.656 133.907 280.549 133.48C280.443 133.053 280.277 132.685 280.053 132.376C279.829 132.056 279.541 131.805 279.189 131.624C278.837 131.443 278.405 131.352 277.893 131.352C277.392 131.352 276.96 131.453 276.597 131.656C276.245 131.848 275.957 132.109 275.733 132.44C275.509 132.76 275.344 133.133 275.237 133.56C275.131 133.976 275.077 134.408 275.077 134.856C275.077 135.368 275.136 135.843 275.253 136.28C275.381 136.707 275.563 137.075 275.797 137.384C276.032 137.693 276.325 137.933 276.677 138.104C277.029 138.275 277.435 138.36 277.893 138.36C278.395 138.36 278.821 138.264 279.173 138.072C279.536 137.869 279.829 137.603 280.053 137.272C280.277 136.941 280.443 136.568 280.549 136.152C280.656 135.736 280.709 135.304 280.709 134.856ZM289.104 130.712H290.064V139H289.104V137.848C288.976 137.997 288.832 138.152 288.672 138.312C288.512 138.472 288.325 138.621 288.112 138.76C287.909 138.888 287.669 138.995 287.392 139.08C287.115 139.176 286.795 139.224 286.432 139.224C285.877 139.224 285.413 139.149 285.04 139C284.667 138.84 284.363 138.621 284.128 138.344C283.904 138.067 283.739 137.747 283.632 137.384C283.536 137.011 283.488 136.605 283.488 136.168V130.712H284.448V136.152C284.448 136.867 284.613 137.416 284.944 137.8C285.275 138.173 285.819 138.36 286.576 138.36C286.971 138.36 287.323 138.285 287.632 138.136C287.952 137.976 288.219 137.757 288.432 137.48C288.645 137.203 288.811 136.872 288.928 136.488C289.045 136.104 289.104 135.683 289.104 135.224V130.712ZM293.387 139H292.427V130.712H293.387V132.264H293.419C293.685 131.603 294.027 131.144 294.443 130.888C294.869 130.621 295.429 130.488 296.123 130.488V131.528C295.579 131.517 295.131 131.603 294.779 131.784C294.427 131.965 294.144 132.211 293.931 132.52C293.728 132.829 293.584 133.197 293.499 133.624C293.424 134.04 293.387 134.477 293.387 134.936V139ZM45.8122 149.512V148.712H47.0442V147.4C47.0442 146.739 47.1775 146.216 47.4442 145.832C47.7109 145.448 48.1642 145.256 48.8042 145.256C48.9535 145.256 49.0922 145.261 49.2202 145.272C49.3482 145.283 49.4762 145.299 49.6042 145.32V146.2C49.3909 146.147 49.1989 146.12 49.0282 146.12C48.7829 146.12 48.5909 146.168 48.4522 146.264C48.3135 146.349 48.2122 146.467 48.1482 146.616C48.0842 146.765 48.0415 146.936 48.0202 147.128C48.0095 147.309 48.0042 147.496 48.0042 147.688V148.712H49.6042V149.512H48.0042V157H47.0442V149.512H45.8122ZM52.1053 157H51.1453V148.712H52.1053V150.264H52.1373C52.404 149.603 52.7453 149.144 53.1613 148.888C53.588 148.621 54.148 148.488 54.8413 148.488V149.528C54.2973 149.517 53.8493 149.603 53.4973 149.784C53.1453 149.965 52.8626 150.211 52.6493 150.52C52.4466 150.829 52.3026 151.197 52.2173 151.624C52.1426 152.04 52.1053 152.477 52.1053 152.936V157ZM56.2882 157V148.712H57.2482V157H56.2882ZM56.2402 146.904V145.48H57.2962V146.904H56.2402ZM65.6911 152.28C65.6911 151.875 65.6324 151.496 65.5151 151.144C65.4084 150.781 65.2431 150.472 65.0191 150.216C64.8057 149.949 64.5337 149.741 64.2031 149.592C63.8724 149.432 63.4937 149.352 63.0671 149.352C62.6404 149.352 62.2617 149.432 61.9311 149.592C61.6111 149.752 61.3337 149.965 61.0991 150.232C60.8751 150.499 60.6937 150.808 60.5551 151.16C60.4164 151.512 60.3257 151.885 60.2831 152.28H65.6911ZM60.2831 153.08C60.2831 153.528 60.3417 153.955 60.4591 154.36C60.5764 154.755 60.7471 155.101 60.9711 155.4C61.2057 155.688 61.4991 155.923 61.8511 156.104C62.2031 156.275 62.6084 156.36 63.0671 156.36C63.6964 156.36 64.2351 156.195 64.6831 155.864C65.1311 155.533 65.4297 155.064 65.5791 154.456H66.6511C66.5337 154.851 66.3791 155.219 66.1871 155.56C65.9951 155.891 65.7551 156.184 65.4671 156.44C65.1791 156.685 64.8377 156.877 64.4431 157.016C64.0484 157.155 63.5897 157.224 63.0671 157.224C62.4057 157.224 61.8351 157.112 61.3551 156.888C60.8751 156.664 60.4804 156.36 60.1711 155.976C59.8617 155.581 59.6324 155.123 59.4831 154.6C59.3337 154.067 59.2591 153.496 59.2591 152.888C59.2591 152.28 59.3444 151.709 59.5151 151.176C59.6964 150.643 59.9471 150.179 60.2671 149.784C60.5977 149.379 60.9977 149.064 61.4671 148.84C61.9364 148.605 62.4697 148.488 63.0671 148.488C64.2084 148.488 65.1044 148.883 65.7551 149.672C66.4057 150.451 66.7257 151.587 66.7151 153.08H60.2831ZM69.5417 157H68.5817V148.712H69.5417V149.864C69.9257 149.459 70.3204 149.128 70.7257 148.872C71.1417 148.616 71.6377 148.488 72.2137 148.488C72.7257 148.488 73.2004 148.579 73.6377 148.76C74.075 148.931 74.443 149.235 74.7417 149.672C74.9444 149.971 75.0617 150.28 75.0937 150.6C75.1364 150.909 75.1577 151.235 75.1577 151.576V157H74.1977V151.592C74.1977 150.845 74.0324 150.285 73.7017 149.912C73.371 149.539 72.8217 149.352 72.0537 149.352C71.755 149.352 71.483 149.4 71.2377 149.496C70.9924 149.581 70.7684 149.699 70.5657 149.848C70.3737 149.997 70.2084 150.168 70.0697 150.36C69.931 150.552 69.8244 150.755 69.7497 150.968C69.6537 151.235 69.595 151.491 69.5737 151.736C69.5524 151.981 69.5417 152.248 69.5417 152.536V157ZM83.8723 152.824C83.8723 152.355 83.8083 151.912 83.6803 151.496C83.5523 151.069 83.3656 150.701 83.1203 150.392C82.8856 150.072 82.5923 149.821 82.2403 149.64C81.899 149.448 81.5096 149.352 81.0723 149.352C80.571 149.352 80.139 149.453 79.7763 149.656C79.4136 149.848 79.115 150.115 78.8803 150.456C78.6456 150.797 78.475 151.197 78.3683 151.656C78.2616 152.104 78.219 152.589 78.2403 153.112C78.2403 153.635 78.3096 154.099 78.4483 154.504C78.5976 154.899 78.8003 155.235 79.0563 155.512C79.3123 155.789 79.611 156.003 79.9523 156.152C80.2936 156.291 80.667 156.36 81.0723 156.36C81.5203 156.36 81.9203 156.269 82.2723 156.088C82.6243 155.907 82.9176 155.661 83.1523 155.352C83.387 155.032 83.563 154.659 83.6803 154.232C83.8083 153.795 83.8723 153.325 83.8723 152.824ZM83.8723 145.48H84.8323V157H83.8723V155.544H83.8403C83.7016 155.821 83.5203 156.067 83.2963 156.28C83.083 156.483 82.843 156.653 82.5763 156.792C82.3203 156.931 82.0536 157.037 81.7763 157.112C81.499 157.187 81.227 157.224 80.9603 157.224C80.2883 157.224 79.7176 157.112 79.2483 156.888C78.779 156.664 78.3896 156.36 78.0803 155.976C77.7816 155.581 77.563 155.117 77.4243 154.584C77.2856 154.051 77.2163 153.48 77.2163 152.872C77.2163 152.296 77.291 151.741 77.4403 151.208C77.5896 150.675 77.8136 150.211 78.1123 149.816C78.4216 149.411 78.8056 149.091 79.2643 148.856C79.7336 148.611 80.283 148.488 80.9123 148.488C81.499 148.488 82.059 148.621 82.5923 148.888C83.1363 149.144 83.563 149.528 83.8723 150.04V145.48ZM87.8136 154.408C87.9629 155.123 88.2296 155.629 88.6136 155.928C89.0082 156.216 89.5682 156.36 90.2936 156.36C90.6456 156.36 90.9496 156.317 91.2056 156.232C91.4616 156.147 91.6696 156.035 91.8296 155.896C92.0002 155.747 92.1282 155.581 92.2136 155.4C92.2989 155.219 92.3416 155.027 92.3416 154.824C92.3416 154.419 92.2082 154.12 91.9416 153.928C91.6856 153.725 91.3602 153.571 90.9656 153.464C90.5709 153.347 90.1442 153.251 89.6856 153.176C89.2269 153.091 88.8002 152.968 88.4056 152.808C88.0109 152.648 87.6802 152.419 87.4136 152.12C87.1576 151.821 87.0296 151.4 87.0296 150.856C87.0296 150.163 87.2802 149.597 87.7816 149.16C88.2936 148.712 89.0136 148.488 89.9416 148.488C90.8376 148.488 91.5629 148.691 92.1176 149.096C92.6829 149.491 93.0242 150.157 93.1416 151.096H92.1656C92.0802 150.456 91.8349 150.008 91.4296 149.752C91.0349 149.485 90.5336 149.352 89.9256 149.352C89.3176 149.352 88.8536 149.485 88.5336 149.752C88.2136 150.008 88.0536 150.349 88.0536 150.776C88.0536 151.149 88.1816 151.437 88.4376 151.64C88.7042 151.832 89.0349 151.992 89.4296 152.12C89.8242 152.237 90.2509 152.344 90.7096 152.44C91.1682 152.536 91.5949 152.675 91.9896 152.856C92.3842 153.027 92.7096 153.261 92.9656 153.56C93.2322 153.859 93.3656 154.275 93.3656 154.808C93.3656 155.203 93.2802 155.555 93.1096 155.864C92.9389 156.163 92.7042 156.413 92.4056 156.616C92.1069 156.819 91.7496 156.968 91.3336 157.064C90.9282 157.171 90.4802 157.224 89.9896 157.224C89.4989 157.224 89.0616 157.149 88.6776 157C88.3042 156.861 87.9842 156.664 87.7176 156.408C87.4509 156.152 87.2429 155.853 87.0936 155.512C86.9442 155.171 86.8589 154.803 86.8376 154.408H87.8136ZM105.131 152.648C104.725 152.819 104.315 152.931 103.899 152.984C103.483 153.037 103.067 153.08 102.651 153.112C101.915 153.165 101.339 153.331 100.923 153.608C100.517 153.885 100.315 154.307 100.315 154.872C100.315 155.128 100.363 155.352 100.459 155.544C100.565 155.725 100.699 155.88 100.859 156.008C101.029 156.125 101.221 156.216 101.435 156.28C101.659 156.333 101.883 156.36 102.107 156.36C102.491 156.36 102.864 156.312 103.227 156.216C103.589 156.12 103.909 155.976 104.187 155.784C104.475 155.581 104.704 155.331 104.875 155.032C105.045 154.723 105.131 154.36 105.131 153.944V152.648ZM103.515 152.168C103.696 152.147 103.909 152.115 104.155 152.072C104.411 152.029 104.619 151.971 104.779 151.896C104.939 151.821 105.035 151.699 105.067 151.528C105.109 151.347 105.131 151.181 105.131 151.032C105.131 150.541 104.971 150.141 104.651 149.832C104.341 149.512 103.813 149.352 103.067 149.352C102.736 149.352 102.432 149.384 102.155 149.448C101.877 149.501 101.632 149.603 101.419 149.752C101.216 149.891 101.045 150.083 100.907 150.328C100.779 150.563 100.693 150.861 100.651 151.224H99.6747C99.7067 150.733 99.8187 150.317 100.011 149.976C100.203 149.624 100.448 149.341 100.747 149.128C101.056 148.904 101.408 148.744 101.803 148.648C102.208 148.541 102.635 148.488 103.083 148.488C103.499 148.488 103.888 148.536 104.251 148.632C104.624 148.717 104.944 148.861 105.211 149.064C105.488 149.256 105.701 149.517 105.851 149.848C106.011 150.179 106.091 150.584 106.091 151.064V155.576C106.091 155.949 106.155 156.189 106.283 156.296C106.421 156.392 106.693 156.365 107.099 156.216V156.968C107.024 156.989 106.912 157.021 106.763 157.064C106.624 157.107 106.485 157.128 106.347 157.128C106.197 157.128 106.053 157.112 105.915 157.08C105.755 157.059 105.627 157.011 105.531 156.936C105.435 156.851 105.355 156.755 105.291 156.648C105.237 156.531 105.2 156.408 105.179 156.28C105.157 156.141 105.147 155.997 105.147 155.848C104.741 156.296 104.277 156.637 103.755 156.872C103.232 157.107 102.667 157.224 102.059 157.224C101.696 157.224 101.344 157.176 101.003 157.08C100.672 156.984 100.379 156.835 100.123 156.632C99.8667 156.429 99.664 156.184 99.5147 155.896C99.3654 155.597 99.2907 155.245 99.2907 154.84C99.2907 153.432 100.256 152.6 102.187 152.344L103.515 152.168ZM114.469 151.32C114.299 150.701 114.005 150.221 113.589 149.88C113.173 149.528 112.645 149.352 112.005 149.352C111.515 149.352 111.093 149.453 110.741 149.656C110.389 149.859 110.101 150.131 109.877 150.472C109.653 150.803 109.488 151.181 109.381 151.608C109.275 152.024 109.221 152.445 109.221 152.872C109.221 153.309 109.269 153.736 109.365 154.152C109.472 154.568 109.637 154.941 109.861 155.272C110.085 155.603 110.373 155.869 110.725 156.072C111.077 156.264 111.504 156.36 112.005 156.36C112.72 156.36 113.291 156.163 113.717 155.768C114.155 155.373 114.432 154.829 114.549 154.136H115.573C115.488 154.595 115.349 155.016 115.157 155.4C114.976 155.773 114.736 156.099 114.437 156.376C114.149 156.643 113.803 156.851 113.397 157C112.992 157.149 112.528 157.224 112.005 157.224C111.344 157.224 110.773 157.112 110.293 156.888C109.813 156.664 109.419 156.36 109.109 155.976C108.8 155.581 108.571 155.117 108.421 154.584C108.272 154.051 108.197 153.48 108.197 152.872C108.197 152.296 108.277 151.747 108.437 151.224C108.608 150.691 108.853 150.221 109.173 149.816C109.493 149.411 109.888 149.091 110.357 148.856C110.837 148.611 111.387 148.488 112.005 148.488C112.965 148.488 113.739 148.717 114.325 149.176C114.923 149.635 115.296 150.349 115.445 151.32H114.469ZM118.496 157H117.536V148.712H118.496V150.264H118.528C118.795 149.603 119.136 149.144 119.552 148.888C119.979 148.621 120.539 148.488 121.232 148.488V149.528C120.688 149.517 120.24 149.603 119.888 149.784C119.536 149.965 119.253 150.211 119.04 150.52C118.837 150.829 118.693 151.197 118.608 151.624C118.533 152.04 118.496 152.477 118.496 152.936V157ZM125.831 157.224C125.297 157.213 124.796 157.117 124.327 156.936C123.868 156.755 123.463 156.483 123.111 156.12C122.769 155.757 122.497 155.304 122.295 154.76C122.092 154.216 121.991 153.581 121.991 152.856C121.991 152.248 122.071 151.683 122.231 151.16C122.391 150.627 122.631 150.163 122.951 149.768C123.271 149.373 123.671 149.064 124.151 148.84C124.631 148.605 125.191 148.488 125.831 148.488C126.481 148.488 127.047 148.605 127.527 148.84C128.007 149.064 128.407 149.373 128.727 149.768C129.047 150.152 129.281 150.611 129.431 151.144C129.591 151.677 129.671 152.248 129.671 152.856C129.671 153.517 129.58 154.115 129.399 154.648C129.217 155.181 128.956 155.64 128.615 156.024C128.284 156.408 127.879 156.707 127.399 156.92C126.929 157.123 126.407 157.224 125.831 157.224ZM128.647 152.856C128.647 152.365 128.593 151.907 128.487 151.48C128.38 151.053 128.215 150.685 127.991 150.376C127.767 150.056 127.479 149.805 127.127 149.624C126.775 149.443 126.343 149.352 125.831 149.352C125.329 149.352 124.897 149.453 124.535 149.656C124.183 149.848 123.895 150.109 123.671 150.44C123.447 150.76 123.281 151.133 123.175 151.56C123.068 151.976 123.015 152.408 123.015 152.856C123.015 153.368 123.073 153.843 123.191 154.28C123.319 154.707 123.5 155.075 123.735 155.384C123.969 155.693 124.263 155.933 124.615 156.104C124.967 156.275 125.372 156.36 125.831 156.36C126.332 156.36 126.759 156.264 127.111 156.072C127.473 155.869 127.767 155.603 127.991 155.272C128.215 154.941 128.38 154.568 128.487 154.152C128.593 153.736 128.647 153.304 128.647 152.856ZM131.985 154.408C132.135 155.123 132.401 155.629 132.785 155.928C133.18 156.216 133.74 156.36 134.465 156.36C134.817 156.36 135.121 156.317 135.377 156.232C135.633 156.147 135.841 156.035 136.001 155.896C136.172 155.747 136.3 155.581 136.385 155.4C136.471 155.219 136.513 155.027 136.513 154.824C136.513 154.419 136.38 154.12 136.113 153.928C135.857 153.725 135.532 153.571 135.137 153.464C134.743 153.347 134.316 153.251 133.857 153.176C133.399 153.091 132.972 152.968 132.577 152.808C132.183 152.648 131.852 152.419 131.585 152.12C131.329 151.821 131.201 151.4 131.201 150.856C131.201 150.163 131.452 149.597 131.953 149.16C132.465 148.712 133.185 148.488 134.113 148.488C135.009 148.488 135.735 148.691 136.289 149.096C136.855 149.491 137.196 150.157 137.313 151.096H136.337C136.252 150.456 136.007 150.008 135.601 149.752C135.207 149.485 134.705 149.352 134.097 149.352C133.489 149.352 133.025 149.485 132.705 149.752C132.385 150.008 132.225 150.349 132.225 150.776C132.225 151.149 132.353 151.437 132.609 151.64C132.876 151.832 133.207 151.992 133.601 152.12C133.996 152.237 134.423 152.344 134.881 152.44C135.34 152.536 135.767 152.675 136.161 152.856C136.556 153.027 136.881 153.261 137.137 153.56C137.404 153.859 137.537 154.275 137.537 154.808C137.537 155.203 137.452 155.555 137.281 155.864C137.111 156.163 136.876 156.413 136.577 156.616C136.279 156.819 135.921 156.968 135.505 157.064C135.1 157.171 134.652 157.224 134.161 157.224C133.671 157.224 133.233 157.149 132.849 157C132.476 156.861 132.156 156.664 131.889 156.408C131.623 156.152 131.415 155.853 131.265 155.512C131.116 155.171 131.031 154.803 131.009 154.408H131.985ZM139.985 154.408C140.135 155.123 140.401 155.629 140.785 155.928C141.18 156.216 141.74 156.36 142.465 156.36C142.817 156.36 143.121 156.317 143.377 156.232C143.633 156.147 143.841 156.035 144.001 155.896C144.172 155.747 144.3 155.581 144.385 155.4C144.471 155.219 144.513 155.027 144.513 154.824C144.513 154.419 144.38 154.12 144.113 153.928C143.857 153.725 143.532 153.571 143.137 153.464C142.743 153.347 142.316 153.251 141.857 153.176C141.399 153.091 140.972 152.968 140.577 152.808C140.183 152.648 139.852 152.419 139.585 152.12C139.329 151.821 139.201 151.4 139.201 150.856C139.201 150.163 139.452 149.597 139.953 149.16C140.465 148.712 141.185 148.488 142.113 148.488C143.009 148.488 143.735 148.691 144.289 149.096C144.855 149.491 145.196 150.157 145.313 151.096H144.337C144.252 150.456 144.007 150.008 143.601 149.752C143.207 149.485 142.705 149.352 142.097 149.352C141.489 149.352 141.025 149.485 140.705 149.752C140.385 150.008 140.225 150.349 140.225 150.776C140.225 151.149 140.353 151.437 140.609 151.64C140.876 151.832 141.207 151.992 141.601 152.12C141.996 152.237 142.423 152.344 142.881 152.44C143.34 152.536 143.767 152.675 144.161 152.856C144.556 153.027 144.881 153.261 145.137 153.56C145.404 153.859 145.537 154.275 145.537 154.808C145.537 155.203 145.452 155.555 145.281 155.864C145.111 156.163 144.876 156.413 144.577 156.616C144.279 156.819 143.921 156.968 143.505 157.064C143.1 157.171 142.652 157.224 142.161 157.224C141.671 157.224 141.233 157.149 140.849 157C140.476 156.861 140.156 156.664 139.889 156.408C139.623 156.152 139.415 155.853 139.265 155.512C139.116 155.171 139.031 154.803 139.009 154.408H139.985ZM157.303 152.648C156.897 152.819 156.487 152.931 156.071 152.984C155.655 153.037 155.239 153.08 154.823 153.112C154.087 153.165 153.511 153.331 153.095 153.608C152.689 153.885 152.487 154.307 152.487 154.872C152.487 155.128 152.535 155.352 152.631 155.544C152.737 155.725 152.871 155.88 153.031 156.008C153.201 156.125 153.393 156.216 153.607 156.28C153.831 156.333 154.055 156.36 154.279 156.36C154.663 156.36 155.036 156.312 155.399 156.216C155.761 156.12 156.081 155.976 156.359 155.784C156.647 155.581 156.876 155.331 157.047 155.032C157.217 154.723 157.303 154.36 157.303 153.944V152.648ZM155.687 152.168C155.868 152.147 156.081 152.115 156.327 152.072C156.583 152.029 156.791 151.971 156.951 151.896C157.111 151.821 157.207 151.699 157.239 151.528C157.281 151.347 157.303 151.181 157.303 151.032C157.303 150.541 157.143 150.141 156.823 149.832C156.513 149.512 155.985 149.352 155.239 149.352C154.908 149.352 154.604 149.384 154.327 149.448C154.049 149.501 153.804 149.603 153.591 149.752C153.388 149.891 153.217 150.083 153.079 150.328C152.951 150.563 152.865 150.861 152.823 151.224H151.847C151.879 150.733 151.991 150.317 152.183 149.976C152.375 149.624 152.62 149.341 152.919 149.128C153.228 148.904 153.58 148.744 153.975 148.648C154.38 148.541 154.807 148.488 155.255 148.488C155.671 148.488 156.06 148.536 156.423 148.632C156.796 148.717 157.116 148.861 157.383 149.064C157.66 149.256 157.873 149.517 158.023 149.848C158.183 150.179 158.263 150.584 158.263 151.064V155.576C158.263 155.949 158.327 156.189 158.455 156.296C158.593 156.392 158.865 156.365 159.271 156.216V156.968C159.196 156.989 159.084 157.021 158.935 157.064C158.796 157.107 158.657 157.128 158.519 157.128C158.369 157.128 158.225 157.112 158.087 157.08C157.927 157.059 157.799 157.011 157.703 156.936C157.607 156.851 157.527 156.755 157.463 156.648C157.409 156.531 157.372 156.408 157.351 156.28C157.329 156.141 157.319 155.997 157.319 155.848C156.913 156.296 156.449 156.637 155.927 156.872C155.404 157.107 154.839 157.224 154.231 157.224C153.868 157.224 153.516 157.176 153.175 157.08C152.844 156.984 152.551 156.835 152.295 156.632C152.039 156.429 151.836 156.184 151.687 155.896C151.537 155.597 151.463 155.245 151.463 154.84C151.463 153.432 152.428 152.6 154.359 152.344L155.687 152.168ZM161.729 157H160.769V148.712H161.729V149.864C162.113 149.459 162.508 149.128 162.913 148.872C163.329 148.616 163.825 148.488 164.401 148.488C164.913 148.488 165.388 148.579 165.825 148.76C166.263 148.931 166.631 149.235 166.929 149.672C167.132 149.971 167.249 150.28 167.281 150.6C167.324 150.909 167.345 151.235 167.345 151.576V157H166.385V151.592C166.385 150.845 166.22 150.285 165.889 149.912C165.559 149.539 165.009 149.352 164.241 149.352C163.943 149.352 163.671 149.4 163.425 149.496C163.18 149.581 162.956 149.699 162.753 149.848C162.561 149.997 162.396 150.168 162.257 150.36C162.119 150.552 162.012 150.755 161.937 150.968C161.841 151.235 161.783 151.491 161.761 151.736C161.74 151.981 161.729 152.248 161.729 152.536V157ZM169.596 159.256C169.724 159.277 169.852 159.299 169.98 159.32C170.118 159.341 170.257 159.352 170.396 159.352C170.662 159.352 170.881 159.267 171.052 159.096C171.222 158.925 171.361 158.717 171.468 158.472C171.585 158.237 171.681 157.987 171.756 157.72C171.83 157.464 171.916 157.245 172.012 157.064L168.796 148.712H169.868L172.524 155.832L175.18 148.712H176.22L173.132 156.888C172.94 157.411 172.753 157.88 172.572 158.296C172.401 158.712 172.214 159.064 172.012 159.352C171.82 159.651 171.601 159.875 171.356 160.024C171.121 160.184 170.838 160.264 170.508 160.264C170.337 160.264 170.172 160.253 170.012 160.232C169.862 160.211 169.724 160.184 169.596 160.152V159.256ZM182.673 154.408C182.822 155.123 183.089 155.629 183.473 155.928C183.868 156.216 184.428 156.36 185.153 156.36C185.505 156.36 185.809 156.317 186.065 156.232C186.321 156.147 186.529 156.035 186.689 155.896C186.86 155.747 186.988 155.581 187.073 155.4C187.158 155.219 187.201 155.027 187.201 154.824C187.201 154.419 187.068 154.12 186.801 153.928C186.545 153.725 186.22 153.571 185.825 153.464C185.43 153.347 185.004 153.251 184.545 153.176C184.086 153.091 183.66 152.968 183.265 152.808C182.87 152.648 182.54 152.419 182.273 152.12C182.017 151.821 181.889 151.4 181.889 150.856C181.889 150.163 182.14 149.597 182.641 149.16C183.153 148.712 183.873 148.488 184.801 148.488C185.697 148.488 186.422 148.691 186.977 149.096C187.542 149.491 187.884 150.157 188.001 151.096H187.025C186.94 150.456 186.694 150.008 186.289 149.752C185.894 149.485 185.393 149.352 184.785 149.352C184.177 149.352 183.713 149.485 183.393 149.752C183.073 150.008 182.913 150.349 182.913 150.776C182.913 151.149 183.041 151.437 183.297 151.64C183.564 151.832 183.894 151.992 184.289 152.12C184.684 152.237 185.11 152.344 185.569 152.44C186.028 152.536 186.454 152.675 186.849 152.856C187.244 153.027 187.569 153.261 187.825 153.56C188.092 153.859 188.225 154.275 188.225 154.808C188.225 155.203 188.14 155.555 187.969 155.864C187.798 156.163 187.564 156.413 187.265 156.616C186.966 156.819 186.609 156.968 186.193 157.064C185.788 157.171 185.34 157.224 184.849 157.224C184.358 157.224 183.921 157.149 183.537 157C183.164 156.861 182.844 156.664 182.577 156.408C182.31 156.152 182.102 155.853 181.953 155.512C181.804 155.171 181.718 154.803 181.697 154.408H182.673ZM193.409 157.224C192.876 157.213 192.374 157.117 191.905 156.936C191.446 156.755 191.041 156.483 190.689 156.12C190.348 155.757 190.076 155.304 189.873 154.76C189.67 154.216 189.569 153.581 189.569 152.856C189.569 152.248 189.649 151.683 189.809 151.16C189.969 150.627 190.209 150.163 190.529 149.768C190.849 149.373 191.249 149.064 191.729 148.84C192.209 148.605 192.769 148.488 193.409 148.488C194.06 148.488 194.625 148.605 195.105 148.84C195.585 149.064 195.985 149.373 196.305 149.768C196.625 150.152 196.86 150.611 197.009 151.144C197.169 151.677 197.249 152.248 197.249 152.856C197.249 153.517 197.158 154.115 196.977 154.648C196.796 155.181 196.534 155.64 196.193 156.024C195.862 156.408 195.457 156.707 194.977 156.92C194.508 157.123 193.985 157.224 193.409 157.224ZM196.225 152.856C196.225 152.365 196.172 151.907 196.065 151.48C195.958 151.053 195.793 150.685 195.569 150.376C195.345 150.056 195.057 149.805 194.705 149.624C194.353 149.443 193.921 149.352 193.409 149.352C192.908 149.352 192.476 149.453 192.113 149.656C191.761 149.848 191.473 150.109 191.249 150.44C191.025 150.76 190.86 151.133 190.753 151.56C190.646 151.976 190.593 152.408 190.593 152.856C190.593 153.368 190.652 153.843 190.769 154.28C190.897 154.707 191.078 155.075 191.313 155.384C191.548 155.693 191.841 155.933 192.193 156.104C192.545 156.275 192.95 156.36 193.409 156.36C193.91 156.36 194.337 156.264 194.689 156.072C195.052 155.869 195.345 155.603 195.569 155.272C195.793 154.941 195.958 154.568 196.065 154.152C196.172 153.736 196.225 153.304 196.225 152.856ZM204.876 151.32C204.705 150.701 204.412 150.221 203.996 149.88C203.58 149.528 203.052 149.352 202.412 149.352C201.921 149.352 201.5 149.453 201.148 149.656C200.796 149.859 200.508 150.131 200.284 150.472C200.06 150.803 199.894 151.181 199.788 151.608C199.681 152.024 199.628 152.445 199.628 152.872C199.628 153.309 199.676 153.736 199.772 154.152C199.878 154.568 200.044 154.941 200.268 155.272C200.492 155.603 200.78 155.869 201.132 156.072C201.484 156.264 201.91 156.36 202.412 156.36C203.126 156.36 203.697 156.163 204.124 155.768C204.561 155.373 204.838 154.829 204.956 154.136H205.98C205.894 154.595 205.756 155.016 205.564 155.4C205.382 155.773 205.142 156.099 204.844 156.376C204.556 156.643 204.209 156.851 203.804 157C203.398 157.149 202.934 157.224 202.412 157.224C201.75 157.224 201.18 157.112 200.7 156.888C200.22 156.664 199.825 156.36 199.516 155.976C199.206 155.581 198.977 155.117 198.828 154.584C198.678 154.051 198.604 153.48 198.604 152.872C198.604 152.296 198.684 151.747 198.844 151.224C199.014 150.691 199.26 150.221 199.58 149.816C199.9 149.411 200.294 149.091 200.764 148.856C201.244 148.611 201.793 148.488 202.412 148.488C203.372 148.488 204.145 148.717 204.732 149.176C205.329 149.635 205.702 150.349 205.852 151.32H204.876ZM207.757 157V148.712H208.717V157H207.757ZM207.709 146.904V145.48H208.765V146.904H207.709ZM216.584 152.648C216.178 152.819 215.768 152.931 215.352 152.984C214.936 153.037 214.52 153.08 214.104 153.112C213.368 153.165 212.792 153.331 212.376 153.608C211.97 153.885 211.768 154.307 211.768 154.872C211.768 155.128 211.816 155.352 211.912 155.544C212.018 155.725 212.152 155.88 212.312 156.008C212.482 156.125 212.674 156.216 212.888 156.28C213.112 156.333 213.336 156.36 213.56 156.36C213.944 156.36 214.317 156.312 214.68 156.216C215.042 156.12 215.362 155.976 215.64 155.784C215.928 155.581 216.157 155.331 216.328 155.032C216.498 154.723 216.584 154.36 216.584 153.944V152.648ZM214.968 152.168C215.149 152.147 215.362 152.115 215.608 152.072C215.864 152.029 216.072 151.971 216.232 151.896C216.392 151.821 216.488 151.699 216.52 151.528C216.562 151.347 216.584 151.181 216.584 151.032C216.584 150.541 216.424 150.141 216.104 149.832C215.794 149.512 215.266 149.352 214.52 149.352C214.189 149.352 213.885 149.384 213.608 149.448C213.33 149.501 213.085 149.603 212.872 149.752C212.669 149.891 212.498 150.083 212.36 150.328C212.232 150.563 212.146 150.861 212.104 151.224H211.128C211.16 150.733 211.272 150.317 211.464 149.976C211.656 149.624 211.901 149.341 212.2 149.128C212.509 148.904 212.861 148.744 213.256 148.648C213.661 148.541 214.088 148.488 214.536 148.488C214.952 148.488 215.341 148.536 215.704 148.632C216.077 148.717 216.397 148.861 216.664 149.064C216.941 149.256 217.154 149.517 217.304 149.848C217.464 150.179 217.544 150.584 217.544 151.064V155.576C217.544 155.949 217.608 156.189 217.736 156.296C217.874 156.392 218.146 156.365 218.552 156.216V156.968C218.477 156.989 218.365 157.021 218.216 157.064C218.077 157.107 217.938 157.128 217.8 157.128C217.65 157.128 217.506 157.112 217.368 157.08C217.208 157.059 217.08 157.011 216.984 156.936C216.888 156.851 216.808 156.755 216.744 156.648C216.69 156.531 216.653 156.408 216.632 156.28C216.61 156.141 216.6 155.997 216.6 155.848C216.194 156.296 215.73 156.637 215.208 156.872C214.685 157.107 214.12 157.224 213.512 157.224C213.149 157.224 212.797 157.176 212.456 157.08C212.125 156.984 211.832 156.835 211.576 156.632C211.32 156.429 211.117 156.184 210.968 155.896C210.818 155.597 210.744 155.245 210.744 154.84C210.744 153.432 211.709 152.6 213.64 152.344L214.968 152.168ZM220.194 157V145.48H221.154V157H220.194ZM228.882 157H227.922V148.712H228.882V149.96H228.914C229.16 149.48 229.512 149.117 229.97 148.872C230.429 148.616 230.93 148.488 231.474 148.488C231.858 148.488 232.184 148.531 232.45 148.616C232.717 148.701 232.941 148.819 233.122 148.968C233.314 149.107 233.469 149.272 233.586 149.464C233.714 149.656 233.821 149.864 233.906 150.088C234.184 149.544 234.552 149.144 235.01 148.888C235.48 148.621 236.013 148.488 236.61 148.488C237.176 148.488 237.624 148.584 237.954 148.776C238.296 148.957 238.557 149.203 238.738 149.512C238.92 149.811 239.037 150.157 239.09 150.552C239.154 150.947 239.186 151.352 239.186 151.768V157H238.226V151.272C238.226 150.675 238.098 150.205 237.842 149.864C237.597 149.523 237.133 149.352 236.45 149.352C236.098 149.352 235.757 149.432 235.426 149.592C235.106 149.741 234.824 149.976 234.578 150.296C234.472 150.435 234.381 150.6 234.306 150.792C234.242 150.973 234.189 151.165 234.146 151.368C234.104 151.571 234.072 151.773 234.05 151.976C234.04 152.179 234.034 152.365 234.034 152.536V157H233.074V151.272C233.074 150.675 232.946 150.205 232.69 149.864C232.445 149.523 231.981 149.352 231.298 149.352C230.946 149.352 230.605 149.432 230.274 149.592C229.954 149.741 229.672 149.976 229.426 150.296C229.32 150.435 229.229 150.6 229.154 150.792C229.09 150.973 229.037 151.165 228.994 151.368C228.952 151.571 228.92 151.773 228.898 151.976C228.888 152.179 228.882 152.365 228.882 152.536V157ZM247.379 152.28C247.379 151.875 247.32 151.496 247.203 151.144C247.096 150.781 246.931 150.472 246.707 150.216C246.493 149.949 246.221 149.741 245.891 149.592C245.56 149.432 245.181 149.352 244.755 149.352C244.328 149.352 243.949 149.432 243.619 149.592C243.299 149.752 243.021 149.965 242.787 150.232C242.563 150.499 242.381 150.808 242.243 151.16C242.104 151.512 242.013 151.885 241.971 152.28H247.379ZM241.971 153.08C241.971 153.528 242.029 153.955 242.147 154.36C242.264 154.755 242.435 155.101 242.659 155.4C242.893 155.688 243.187 155.923 243.539 156.104C243.891 156.275 244.296 156.36 244.755 156.36C245.384 156.36 245.923 156.195 246.371 155.864C246.819 155.533 247.117 155.064 247.267 154.456H248.339C248.221 154.851 248.067 155.219 247.875 155.56C247.683 155.891 247.443 156.184 247.155 156.44C246.867 156.685 246.525 156.877 246.131 157.016C245.736 157.155 245.277 157.224 244.755 157.224C244.093 157.224 243.523 157.112 243.043 156.888C242.563 156.664 242.168 156.36 241.859 155.976C241.549 155.581 241.32 155.123 241.171 154.6C241.021 154.067 240.947 153.496 240.947 152.888C240.947 152.28 241.032 151.709 241.203 151.176C241.384 150.643 241.635 150.179 241.955 149.784C242.285 149.379 242.685 149.064 243.155 148.84C243.624 148.605 244.157 148.488 244.755 148.488C245.896 148.488 246.792 148.883 247.443 149.672C248.093 150.451 248.413 151.587 248.403 153.08H241.971ZM256.669 152.824C256.669 152.355 256.605 151.912 256.477 151.496C256.349 151.069 256.163 150.701 255.917 150.392C255.683 150.072 255.389 149.821 255.037 149.64C254.696 149.448 254.307 149.352 253.869 149.352C253.368 149.352 252.936 149.453 252.573 149.656C252.211 149.848 251.912 150.115 251.677 150.456C251.443 150.797 251.272 151.197 251.165 151.656C251.059 152.104 251.016 152.589 251.037 153.112C251.037 153.635 251.107 154.099 251.245 154.504C251.395 154.899 251.597 155.235 251.853 155.512C252.109 155.789 252.408 156.003 252.749 156.152C253.091 156.291 253.464 156.36 253.869 156.36C254.317 156.36 254.717 156.269 255.069 156.088C255.421 155.907 255.715 155.661 255.949 155.352C256.184 155.032 256.36 154.659 256.477 154.232C256.605 153.795 256.669 153.325 256.669 152.824ZM256.669 145.48H257.629V157H256.669V155.544H256.637C256.499 155.821 256.317 156.067 256.093 156.28C255.88 156.483 255.64 156.653 255.373 156.792C255.117 156.931 254.851 157.037 254.573 157.112C254.296 157.187 254.024 157.224 253.757 157.224C253.085 157.224 252.515 157.112 252.045 156.888C251.576 156.664 251.187 156.36 250.877 155.976C250.579 155.581 250.36 155.117 250.221 154.584C250.083 154.051 250.013 153.48 250.013 152.872C250.013 152.296 250.088 151.741 250.237 151.208C250.387 150.675 250.611 150.211 250.909 149.816C251.219 149.411 251.603 149.091 252.061 148.856C252.531 148.611 253.08 148.488 253.709 148.488C254.296 148.488 254.856 148.621 255.389 148.888C255.933 149.144 256.36 149.528 256.669 150.04V145.48ZM259.913 157V148.712H260.873V157H259.913ZM259.865 146.904V145.48H260.921V146.904H259.865ZM268.74 152.648C268.335 152.819 267.924 152.931 267.508 152.984C267.092 153.037 266.676 153.08 266.26 153.112C265.524 153.165 264.948 153.331 264.532 153.608C264.127 153.885 263.924 154.307 263.924 154.872C263.924 155.128 263.972 155.352 264.068 155.544C264.175 155.725 264.308 155.88 264.468 156.008C264.639 156.125 264.831 156.216 265.044 156.28C265.268 156.333 265.492 156.36 265.716 156.36C266.1 156.36 266.473 156.312 266.836 156.216C267.199 156.12 267.519 155.976 267.796 155.784C268.084 155.581 268.313 155.331 268.484 155.032C268.655 154.723 268.74 154.36 268.74 153.944V152.648ZM267.124 152.168C267.305 152.147 267.519 152.115 267.764 152.072C268.02 152.029 268.228 151.971 268.388 151.896C268.548 151.821 268.644 151.699 268.676 151.528C268.719 151.347 268.74 151.181 268.74 151.032C268.74 150.541 268.58 150.141 268.26 149.832C267.951 149.512 267.423 149.352 266.676 149.352C266.345 149.352 266.041 149.384 265.764 149.448C265.487 149.501 265.241 149.603 265.028 149.752C264.825 149.891 264.655 150.083 264.516 150.328C264.388 150.563 264.303 150.861 264.26 151.224H263.284C263.316 150.733 263.428 150.317 263.62 149.976C263.812 149.624 264.057 149.341 264.356 149.128C264.665 148.904 265.017 148.744 265.412 148.648C265.817 148.541 266.244 148.488 266.692 148.488C267.108 148.488 267.497 148.536 267.86 148.632C268.233 148.717 268.553 148.861 268.82 149.064C269.097 149.256 269.311 149.517 269.46 149.848C269.62 150.179 269.7 150.584 269.7 151.064V155.576C269.7 155.949 269.764 156.189 269.892 156.296C270.031 156.392 270.303 156.365 270.708 156.216V156.968C270.633 156.989 270.521 157.021 270.372 157.064C270.233 157.107 270.095 157.128 269.956 157.128C269.807 157.128 269.663 157.112 269.524 157.08C269.364 157.059 269.236 157.011 269.14 156.936C269.044 156.851 268.964 156.755 268.9 156.648C268.847 156.531 268.809 156.408 268.788 156.28C268.767 156.141 268.756 155.997 268.756 155.848C268.351 156.296 267.887 156.637 267.364 156.872C266.841 157.107 266.276 157.224 265.668 157.224C265.305 157.224 264.953 157.176 264.612 157.08C264.281 156.984 263.988 156.835 263.732 156.632C263.476 156.429 263.273 156.184 263.124 155.896C262.975 155.597 262.9 155.245 262.9 154.84C262.9 153.432 263.865 152.6 265.796 152.344L267.124 152.168ZM272.687 157V155.592H273.855V157H272.687Z" fill="#4F4F4F"/>
<defs>
<linearGradient id="paint0_linear_9_257" x1="118.445" y1="54.5" x2="275.354" y2="54.5" gradientUnits="userSpaceOnUse">
<stop stop-color="#8456EC"/>
<stop offset="1" stop-color="#E87BF8"/>
</linearGradient>
</defs>
</svg>
