<svg viewBox="20 20 20 20" aria-label="settings" role="img"><title>settings</title><path class="fill-primary group-hover:fill-grey-100" d="M38.84 31.58c.38.19.67.49.88.79.4.62.36 1.38-.03 2.05l-.75 1.2a2.27 2.27 0 0 1-3.04.74c-.28-.17-.6-.23-.95-.23-1.06 0-1.96.83-1.99 1.82 0 1.15-.99 2.05-2.23 2.05h-1.46c-1.25 0-2.24-.9-2.24-2.05-.02-.99-.91-1.82-1.98-1.82-.35 0-.67.06-.94.23a2.27 2.27 0 0 1-3.06-.74l-.74-1.2a1.91 1.91 0 0 1-.02-2.05c.17-.3.5-.6.86-.79a1.78 1.78 0 0 0-.02-3.14 1.99 1.99 0 0 1-.8-2.83l.72-1.18a2.3 2.3 0 0 1 3.04-.76c.93.48 2.15.16 2.7-.69.17-.28.26-.58.24-.88-.02-.39.1-.76.3-1.06a2.34 2.34 0 0 1 1.9-1.04h1.52c.8 0 1.52.42 1.92 1.04.2.3.32.67.29 1.06-.02.3.08.6.25.88a2.14 2.14 0 0 0 2.7.69 2.29 2.29 0 0 1 3.03.76l.72 1.18c.63.99.28 2.26-.8 2.83a1.77 1.77 0 0 0-.68 2.5c.17.27.36.5.66.64Zm-11.88-1.57c0 1.57 1.36 2.82 3.05 2.82 1.7 0 3.03-1.25 3.03-2.82 0-1.57-1.34-2.83-3.03-2.83-1.69 0-3.05 1.26-3.05 2.83Z"></path></svg>