<svg width="16" height="11" viewBox="0 0 16 11" fill="none" xmlns="http://www.w3.org/2000/svg">
<path fill-rule="evenodd" clip-rule="evenodd" d="M13.9396 4.65566C12.3336 3.12886 10.2025 2.27742 7.98658 2.27733C5.77047 2.27732 3.63907 3.12876 2.03291 4.65566C1.91206 4.77372 1.71861 4.77223 1.59958 4.65233L0.443248 3.48566C0.382984 3.42489 0.34942 3.34262 0.349983 3.25704C0.350546 3.17146 0.385189 3.08963 0.446248 3.02966C4.66135 -1.00989 11.3112 -1.00989 15.5262 3.02966C15.5873 3.08967 15.6218 3.17153 15.6223 3.25711C15.6228 3.34269 15.5892 3.42494 15.5289 3.48566L14.3729 4.65233C14.2538 4.77205 14.0605 4.77354 13.9396 4.65566ZM7.98663 6.07299C9.20412 6.07292 10.3782 6.52545 11.2806 7.34266C11.4027 7.45864 11.595 7.45612 11.714 7.33699L12.8686 6.17032C12.9294 6.10913 12.9632 6.02611 12.9623 5.93985C12.9614 5.85358 12.926 5.77127 12.864 5.71132C10.1158 3.15494 5.85983 3.15494 3.11163 5.71132C3.04955 5.77127 3.01413 5.85362 3.01332 5.93992C3.01251 6.02621 3.04636 6.10922 3.1073 6.17032L4.26163 7.33699C4.38062 7.45612 4.5729 7.45864 4.69496 7.34266C5.59684 6.52599 6.76995 6.07349 7.98663 6.07299ZM10.2056 8.85733C10.2673 8.79672 10.3013 8.71332 10.2996 8.62681C10.2978 8.54031 10.2604 8.45836 10.1962 8.40033C8.92068 7.32144 7.05249 7.32144 5.77692 8.40033C5.71269 8.45831 5.67525 8.54023 5.67342 8.62674C5.67159 8.71325 5.70554 8.79668 5.76725 8.85733L7.76491 10.873C7.82347 10.9322 7.90329 10.9656 7.98658 10.9656C8.06987 10.9656 8.1497 10.9322 8.20825 10.873L10.2056 8.85733Z" fill="#020202"/>
</svg>
